<svg width="113" height="28" viewBox="0 0 113 28" fill="none" xmlns="http://www.w3.org/2000/svg">
<path d="M46.7369 11.0871L45.2395 11.682C45.0001 10.9299 44.6001 10.3521 44.0395 9.94867C43.4788 9.54525 42.8053 9.34354 42.0189 9.34354C41.595 9.34354 41.2155 9.41192 40.8805 9.54867C40.5523 9.67858 40.2617 9.85978 40.0087 10.0923C39.7625 10.3247 39.5505 10.5948 39.3728 10.9025C39.2018 11.2102 39.0617 11.5384 38.9523 11.8871C38.8429 12.2359 38.7642 12.5983 38.7164 12.9743C38.6685 13.3436 38.6446 13.7025 38.6446 14.0513C38.6446 14.4273 38.6651 14.8068 38.7061 15.1897C38.7471 15.5726 38.8155 15.9419 38.9112 16.2974C39.0138 16.6461 39.1471 16.9743 39.3112 17.282C39.4753 17.5829 39.6805 17.8461 39.9266 18.0718C40.1796 18.2974 40.477 18.4752 40.8189 18.6051C41.1676 18.735 41.5677 18.8 42.0189 18.8C42.3813 18.8 42.7266 18.7453 43.0548 18.6359C43.383 18.5265 43.6839 18.3726 43.9574 18.1744C44.2309 17.9761 44.4736 17.7402 44.6856 17.4667C44.8976 17.1931 45.0651 16.8889 45.1882 16.5538L46.6959 17.1077C46.4702 17.6479 46.1694 18.1162 45.7933 18.5128C45.4241 18.9026 45.0036 19.2273 44.5318 19.4872C44.06 19.7402 43.554 19.9282 43.0138 20.0513C42.4736 20.1744 41.9266 20.2359 41.3728 20.2359C40.477 20.2359 39.6463 20.0855 38.8805 19.7846C38.1146 19.4769 37.4514 19.0496 36.8907 18.5026C36.3369 17.9487 35.9027 17.2957 35.5881 16.5436C35.2736 15.7846 35.1163 14.9538 35.1163 14.0513C35.1163 13.1418 35.2702 12.3077 35.5779 11.5487C35.8924 10.7897 36.3266 10.1367 36.8804 9.5897C37.4343 9.04268 38.0941 8.61875 38.8599 8.31789C39.6258 8.01704 40.4634 7.86661 41.3728 7.86661C41.9471 7.86661 42.5078 7.93157 43.0548 8.06148C43.6018 8.18456 44.1078 8.37943 44.5728 8.6461C45.0446 8.90593 45.4651 9.23756 45.8343 9.64098C46.2104 10.0444 46.5113 10.5265 46.7369 11.0871ZM60.7165 20H57.2498V18.5846C56.8395 19.1453 56.3438 19.5624 55.7626 19.8359C55.1882 20.1026 54.5557 20.2359 53.8651 20.2359C52.9626 20.2359 52.1557 20.0752 51.4446 19.7538C50.7335 19.4325 50.1318 18.9949 49.6395 18.441C49.1472 17.8803 48.7711 17.2239 48.5113 16.4718C48.2514 15.7196 48.1215 14.9128 48.1215 14.0513C48.1215 13.1897 48.2514 12.3829 48.5113 11.6307C48.7711 10.8786 49.1472 10.2256 49.6395 9.67175C50.1318 9.11106 50.7335 8.67003 51.4446 8.34866C52.1557 8.02729 52.9626 7.86661 53.8651 7.86661C54.3233 7.86661 54.7575 7.93499 55.1677 8.07174C55.5848 8.20849 55.9643 8.40336 56.3062 8.65636C56.6549 8.90251 56.9592 9.20337 57.219 9.55893C57.4857 9.90765 57.6942 10.2974 57.8447 10.7282L59.3831 8.15379H60.7165V20ZM57.2293 14.0513C57.2293 13.7436 57.2122 13.4188 57.178 13.0769C57.1506 12.735 57.0993 12.3965 57.0241 12.0615C56.9489 11.7265 56.8429 11.4085 56.7062 11.1077C56.5763 10.8 56.4053 10.5299 56.1934 10.2974C55.9882 10.0581 55.7387 9.87004 55.4446 9.73329C55.1506 9.59653 54.8087 9.52816 54.419 9.52816C54.0292 9.52816 53.6908 9.59995 53.4036 9.74354C53.1164 9.88029 52.8703 10.0683 52.6651 10.3076C52.46 10.5401 52.2891 10.8102 52.1523 11.1179C52.0224 11.4256 51.9198 11.747 51.8446 12.082C51.7694 12.4171 51.7147 12.7555 51.6805 13.0974C51.6532 13.4324 51.6395 13.7504 51.6395 14.0513C51.6395 14.3521 51.6532 14.6735 51.6805 15.0154C51.7147 15.3572 51.7694 15.6957 51.8446 16.0308C51.9198 16.3658 52.0224 16.6872 52.1523 16.9949C52.2891 17.3026 52.46 17.5761 52.6651 17.8154C52.8703 18.0479 53.1164 18.2359 53.4036 18.3795C53.6908 18.5162 54.0292 18.5846 54.419 18.5846C54.7746 18.5846 55.0891 18.5128 55.3626 18.3692C55.6429 18.2188 55.8857 18.0205 56.0908 17.7743C56.3028 17.5282 56.4805 17.2479 56.6241 16.9333C56.7677 16.6188 56.884 16.294 56.9729 15.959C57.0617 15.6239 57.1267 15.2923 57.1677 14.9641C57.2087 14.629 57.2293 14.3248 57.2293 14.0513ZM75.7319 13.2102C75.7319 14.0102 75.6328 14.8444 75.4345 15.7128C75.243 16.5812 74.9729 17.4325 74.6242 18.2667C74.2755 19.1009 73.8584 19.8838 73.3729 20.6154C72.8875 21.3539 72.3541 21.9898 71.7729 22.5231L70.4703 21.8154C70.655 21.4735 70.8293 21.0906 70.9934 20.6667C71.1575 20.2427 71.3045 19.7949 71.4345 19.3231C71.5712 18.8444 71.6909 18.3521 71.7934 17.8461C71.9028 17.3402 71.9917 16.841 72.0601 16.3487C72.1353 15.8496 72.19 15.3675 72.2242 14.9025C72.2652 14.4307 72.2857 13.9931 72.2857 13.5897C72.2857 13.323 72.2755 13.0393 72.255 12.7384C72.2345 12.4307 72.19 12.1265 72.1216 11.8256C72.0601 11.5179 71.9746 11.2239 71.8652 10.9435C71.7558 10.6632 71.6088 10.417 71.4242 10.2051C71.2464 9.99312 71.0276 9.82217 70.7678 9.69226C70.5148 9.56234 70.2139 9.49739 69.8652 9.49739C69.5233 9.49739 69.2191 9.57602 68.9524 9.73329C68.6857 9.88371 68.4498 10.0854 68.2447 10.3384C68.0396 10.5846 67.8618 10.8683 67.7114 11.1897C67.5678 11.5111 67.4481 11.8427 67.3524 12.1846C67.2635 12.5196 67.1985 12.8512 67.1575 13.1795C67.1165 13.5077 67.096 13.8017 67.096 14.0615V20H63.619V8.15379H64.9524L66.5421 10.9128C66.7336 10.4547 66.9729 10.0376 67.2601 9.66149C67.5473 9.28542 67.872 8.96405 68.2344 8.69738C68.5968 8.43072 68.9968 8.22559 69.4344 8.082C69.8789 7.93841 70.3575 7.86661 70.8704 7.86661C71.6909 7.86661 72.4054 7.99994 73.014 8.26661C73.6225 8.53328 74.1285 8.90593 74.5319 9.38457C74.9353 9.85636 75.2362 10.4205 75.4345 11.0769C75.6328 11.7265 75.7319 12.4376 75.7319 13.2102ZM96.3474 13.0871C96.3474 13.9008 96.2517 14.7487 96.0602 15.6307C95.8688 16.5128 95.5987 17.3743 95.25 18.2154C94.9081 19.0496 94.4944 19.8393 94.0089 20.5846C93.5235 21.3299 92.9833 21.9761 92.3884 22.5231L91.0858 21.8154C91.2841 21.4598 91.4653 21.0598 91.6294 20.6154C91.7935 20.1709 91.944 19.7026 92.0807 19.2103C92.2175 18.7179 92.3371 18.212 92.4397 17.6923C92.5422 17.1726 92.6277 16.6564 92.6961 16.1436C92.7713 15.6239 92.826 15.1213 92.8602 14.6359C92.8944 14.1504 92.9115 13.6957 92.9115 13.2718C92.9115 13.0324 92.9046 12.7726 92.891 12.4923C92.8773 12.2119 92.8465 11.9316 92.7987 11.6512C92.7576 11.3709 92.6927 11.1042 92.6038 10.8512C92.5149 10.5914 92.3918 10.3623 92.2346 10.1641C92.0841 9.95893 91.8927 9.79824 91.6602 9.682C91.4346 9.55893 91.161 9.49739 90.8397 9.49739C90.5251 9.49739 90.2551 9.58286 90.0294 9.7538C89.8106 9.9179 89.6226 10.1333 89.4653 10.4C89.308 10.6666 89.1816 10.9675 89.0858 11.3025C88.9969 11.6376 88.9286 11.976 88.8807 12.3179C88.8328 12.653 88.7986 12.9743 88.7781 13.282C88.7645 13.5897 88.7576 13.8495 88.7576 14.0615V20H85.3012V14.482C85.3012 14.2427 85.3046 13.9555 85.3114 13.6205C85.3183 13.2786 85.308 12.923 85.2807 12.5538C85.2602 12.1846 85.2157 11.8188 85.1473 11.4564C85.0858 11.0871 84.9832 10.7589 84.8396 10.4718C84.7029 10.1846 84.5149 9.95209 84.2755 9.77431C84.0362 9.5897 83.7354 9.49739 83.373 9.49739C83.0653 9.49739 82.8055 9.58286 82.5935 9.7538C82.3884 9.92474 82.214 10.147 82.0704 10.4205C81.9337 10.6871 81.8243 10.9914 81.7422 11.3333C81.667 11.6683 81.6089 12.0068 81.5678 12.3487C81.5337 12.6837 81.5131 13.0051 81.5063 13.3128C81.4995 13.6136 81.496 13.8632 81.496 14.0615V20H78.0191V8.15379H79.3524L80.6242 10.9128C80.9114 9.95551 81.3627 9.21021 81.9781 8.67687C82.6003 8.1367 83.4243 7.86661 84.4499 7.86661C85.373 7.86661 86.1388 8.05806 86.7474 8.44097C87.3559 8.82388 87.8345 9.4461 88.1833 10.3076C88.3815 9.93158 88.6004 9.59311 88.8397 9.29226C89.0858 8.9914 89.3559 8.73499 89.6499 8.52302C89.9508 8.31106 90.2824 8.15037 90.6448 8.04097C91.0072 7.92473 91.4072 7.86661 91.8448 7.86661C92.6517 7.86661 93.3388 7.99994 93.9064 8.26661C94.4807 8.52644 94.9491 8.88884 95.3115 9.3538C95.6739 9.81876 95.9371 10.3726 96.1012 11.0153C96.2653 11.6512 96.3474 12.3418 96.3474 13.0871ZM110.768 13.2102C110.768 14.0102 110.669 14.8444 110.471 15.7128C110.279 16.5812 110.009 17.4325 109.66 18.2667C109.312 19.1009 108.894 19.8838 108.409 20.6154C107.924 21.3539 107.39 21.9898 106.809 22.5231L105.506 21.8154C105.691 21.4735 105.865 21.0906 106.029 20.6667C106.194 20.2427 106.341 19.7949 106.471 19.3231C106.607 18.8444 106.727 18.3521 106.829 17.8461C106.939 17.3402 107.028 16.841 107.096 16.3487C107.171 15.8496 107.226 15.3675 107.26 14.9025C107.301 14.4307 107.322 13.9931 107.322 13.5897C107.322 13.323 107.312 13.0393 107.291 12.7384C107.271 12.4307 107.226 12.1265 107.158 11.8256C107.096 11.5179 107.011 11.2239 106.901 10.9435C106.792 10.6632 106.645 10.417 106.46 10.2051C106.282 9.99312 106.064 9.82217 105.804 9.69226C105.551 9.56234 105.25 9.49739 104.901 9.49739C104.559 9.49739 104.255 9.57602 103.988 9.73329C103.722 9.88371 103.486 10.0854 103.281 10.3384C103.076 10.5846 102.898 10.8683 102.747 11.1897C102.604 11.5111 102.484 11.8427 102.388 12.1846C102.3 12.5196 102.235 12.8512 102.194 13.1795C102.153 13.5077 102.132 13.8017 102.132 14.0615V20H98.6551V3.7948H102.122V9.89739C102.566 9.24781 103.11 8.74867 103.753 8.39995C104.402 8.04439 105.12 7.86661 105.906 7.86661C106.727 7.86661 107.441 7.99994 108.05 8.26661C108.659 8.53328 109.165 8.90593 109.568 9.38457C109.971 9.85636 110.272 10.4205 110.471 11.0769C110.669 11.7265 110.768 12.4376 110.768 13.2102Z" fill="#39493B"/>
<path d="M15.2456 10.1147L15.4186 13.8043L19.4235 7.47609L15.7183 13.9744L18.8371 12.5335L15.8913 14.2691L22.4286 14.4392L15.8913 14.6093L18.8371 16.7847L15.7183 14.904L18.8371 20.3762L15.4186 15.0741L15.2456 19.2035L15.0726 15.0741L12.0206 20.816L14.7729 14.904L11.4342 16.7847L14.5999 14.6093L7.69609 14.4392L14.5999 14.2691L11.4342 12.5335L14.7729 13.9744L11.4342 7.47607L15.0726 13.8043L15.2456 10.1147Z" fill="#C9B962"/>
<path d="M25.2555 4.46719C25.2555 6.93436 23.2397 8.93439 20.7531 8.93439C18.2665 8.93439 16.2507 6.93436 16.2507 4.46719C16.2507 2.00003 18.2665 0 20.7531 0C23.2397 0 25.2555 2.00003 25.2555 4.46719ZM18.0517 4.46719C18.0517 5.94749 19.2611 7.14751 20.7531 7.14751C22.245 7.14751 23.4545 5.94749 23.4545 4.46719C23.4545 2.9869 22.245 1.78688 20.7531 1.78688C19.2611 1.78688 18.0517 2.9869 18.0517 4.46719Z" fill="#B4754A"/>
<path d="M14.6327 4.46719C14.6327 6.93436 12.6327 8.93439 10.1655 8.93439C7.69835 8.93439 5.69832 6.93436 5.69832 4.46719C5.69832 2.00003 7.69835 0 10.1655 0C12.6327 0 14.6327 2.00003 14.6327 4.46719ZM7.4852 4.46719C7.4852 5.94749 8.68521 7.14751 10.1655 7.14751C11.6458 7.14751 12.8458 5.94749 12.8458 4.46719C12.8458 2.9869 11.6458 1.78688 10.1655 1.78688C8.68521 1.78688 7.4852 2.9869 7.4852 4.46719Z" fill="#B4754A"/>
<path d="M8.93439 14.07C8.93439 16.5566 6.93436 18.5724 4.46719 18.5724C2.00003 18.5724 0 16.5566 0 14.07C0 11.5834 2.00003 9.56763 4.46719 9.56763C6.93436 9.56763 8.93439 11.5834 8.93439 14.07ZM1.78688 14.07C1.78688 15.5619 2.9869 16.7714 4.46719 16.7714C5.94749 16.7714 7.14751 15.5619 7.14751 14.07C7.14751 12.578 5.94749 11.3686 4.46719 11.3686C2.9869 11.3686 1.78688 12.578 1.78688 14.07Z" fill="#B4754A"/>
<ellipse cx="11.534" cy="12.421" rx="1.51527" ry="1.52721" fill="#667061"/>
<path d="M14.6327 23.5319C14.6327 25.9991 12.6327 27.9991 10.1655 27.9991C7.69835 27.9991 5.69832 25.9991 5.69832 23.5319C5.69832 21.0647 7.69835 19.0647 10.1655 19.0647C12.6327 19.0647 14.6327 21.0647 14.6327 23.5319ZM7.4852 23.5319C7.4852 25.0122 8.68521 26.2122 10.1655 26.2122C11.6458 26.2122 12.8458 25.0122 12.8458 23.5319C12.8458 22.0516 11.6458 20.8516 10.1655 20.8516C8.68521 20.8516 7.4852 22.0516 7.4852 23.5319Z" fill="#B4754A"/>
<circle cx="15.3043" cy="19.1383" r="1.51527" fill="#667061"/>
<circle cx="18.9791" cy="16.7997" r="1.51527" fill="#667061"/>
<circle cx="18.9791" cy="12.4091" r="1.51527" fill="#87BB2C"/>
<circle cx="15.2565" cy="10.0944" r="1.51527" fill="#667061"/>
<circle cx="11.534" cy="16.7997" r="1.51527" fill="#667061"/>
<path d="M25.2555 23.5319C25.2555 25.9991 23.2397 27.9991 20.7531 27.9991C18.2665 27.9991 16.2507 25.9991 16.2507 23.5319C16.2507 21.0647 18.2665 19.0647 20.7531 19.0647C23.2397 19.0647 25.2555 21.0647 25.2555 23.5319ZM18.0517 23.5319C18.0517 25.0122 19.2611 26.2122 20.7531 26.2122C22.245 26.2122 23.4545 25.0122 23.4545 23.5319C23.4545 22.0516 22.245 20.8516 20.7531 20.8516C19.2611 20.8516 18.0517 22.0516 18.0517 23.5319Z" fill="#B4754A"/>
<path d="M30.391 14.07C30.391 16.5566 28.391 18.5724 25.9238 18.5724C23.4566 18.5724 21.4566 16.5566 21.4566 14.07C21.4566 11.5834 23.4566 9.56763 25.9238 9.56763C28.391 9.56763 30.391 11.5834 30.391 14.07ZM23.2435 14.07C23.2435 15.5619 24.4435 16.7714 25.9238 16.7714C27.4041 16.7714 28.6041 15.5619 28.6041 14.07C28.6041 12.578 27.4041 11.3686 25.9238 11.3686C24.4435 11.3686 23.2435 12.578 23.2435 14.07Z" fill="#B4754A"/>
</svg>
