<svg width="413" height="349" viewBox="0 0 413 349" fill="none" xmlns="http://www.w3.org/2000/svg">
<path d="M389.63 36.998L364.172 78.6352C357.997 88.7351 365.069 99.4314 373.966 95.4922C382.863 91.553 389.961 78.702 391.545 67.9862C393.128 57.2704 390.581 48.2309 389.63 36.998Z" fill="#F0E5D8"/>
<path d="M265.049 256.489L261.372 305.153C260.48 316.958 271.65 323.254 277.773 315.692C283.896 308.13 284.356 293.457 280.88 283.197C277.404 272.938 271.017 266.053 265.049 256.489Z" fill="#F0E5D8"/>
<path d="M37.0783 25.9563L34.836 73.9077C34.2921 85.5392 51.7376 91.3863 60.541 83.7648C69.3443 76.1432 69.031 61.7044 63.03 51.7256C57.029 41.7469 46.8268 35.1748 37.0783 25.9563Z" fill="#F0E5D8"/>
<path d="M135.521 236.74L116.115 261.646C111.407 267.687 117.099 276.442 124.025 275.21C130.951 273.977 136.345 266.159 137.442 258.889C138.54 251.619 136.42 244.814 135.521 236.74Z" fill="#F0E5D8"/>
<path d="M171.712 8.1709L169.47 56.1223C168.926 67.7538 186.371 73.6009 195.174 65.9794C203.978 58.3578 203.665 43.919 197.664 33.9402C191.663 23.9615 181.46 17.3894 171.712 8.1709Z" fill="#F0E5D8"/>
<path d="M235.876 116.619L233.634 164.571C233.09 176.202 250.535 182.049 259.338 174.428C268.142 166.806 267.828 152.367 261.827 142.388C255.826 132.41 245.624 125.838 235.876 116.619Z" fill="#F0E5D8"/>
<path d="M126.09 90.6357L157.303 128.152C164.874 137.252 177.279 134.005 176.417 124.313C175.555 114.621 165.676 103.76 156.042 98.8084C146.408 93.8564 137.03 93.3542 126.09 90.6357Z" fill="#F0E5D8"/>
<path d="M337.656 124.798C335.266 126.739 332.347 127.657 329.006 128.809C324.486 130.262 319.917 131.557 315.41 133.051C311.907 134.215 308.241 134.966 304.924 136.63C303.315 137.525 301.786 138.557 300.354 139.715C300.989 138.012 301.536 136.278 301.992 134.519C303.252 128.918 303.891 123.196 303.899 117.455C303.903 112.534 303.121 107.655 302.197 102.834C302.15 102.596 302.099 102.358 302.05 102.12C302.766 99.0743 303.202 95.9695 303.351 92.8444C303.51 89.3712 303.186 85.9001 302.87 82.4442C302.388 76.5247 301.141 70.6926 299.16 65.0934C297.601 60.4987 295.764 56.0029 293.66 51.6309C293.284 50.8851 292.895 50.146 292.493 49.4136C292.808 50.845 293.112 52.2788 293.397 53.7163C295.352 63.7996 297.509 73.8419 299.4 83.9377C300.245 88.1405 301.154 92.5006 301.538 96.0356C301.618 96.7615 301.803 99.5384 301.917 101.468C301.557 99.7534 301.159 98.0463 300.682 96.3603C300.687 97.5508 300.676 98.7413 300.657 99.9316C299.833 99.165 299.009 98.3985 298.26 97.5584C297.471 96.5574 296.75 95.5043 296.103 94.4065C293.381 89.7727 291.991 85.498 290.363 79.8465C288.798 74.3849 287.648 68.8127 286.924 63.1776C286.558 59.2883 285.631 48.4661 284.68 42.3178C284.109 38.3254 283.659 35.0165 283.265 30.5381C283.603 30.7675 283.687 30.8731 283.998 31.0859C285.642 32.1663 288.457 36.3493 290.631 40.4313C292.989 44.6972 295.269 49.0055 297.471 53.3562C299.463 57.3583 300.804 60.8616 302.363 66.162C303.399 69.7072 303.941 73.3722 304.459 77.0223C304.432 76.8211 304.405 76.6199 304.378 76.4187C305.22 82.6584 305.519 88.9594 305.272 95.2508C305.26 97.0215 305.057 98.7857 304.668 100.513C304.347 101.886 303.823 103.203 303.113 104.422C306.823 100.779 307.661 95.3835 308.533 90.4785C309.368 85.3149 309.432 80.056 308.722 74.8736C308.266 71.2191 307.522 67.6062 306.499 64.0681C304.532 57.2167 301.417 50.7908 298.014 44.5515C296.347 41.4423 294.661 38.3425 292.865 35.3053C290.718 31.6375 288.026 28.1519 284.278 26.0182C282.374 24.9821 279.466 24.3883 278.671 27.0583C278.358 29.1051 278.853 31.1977 278.976 33.2504C279.586 38.9141 280.234 42.7461 280.787 47.2591C281.497 52.7814 281.871 58.3647 282.551 63.8968C282.235 63.3804 281.731 63.0064 281.146 62.8533C280.56 62.7003 279.938 62.7801 279.41 63.0761C279.074 63.2681 278.789 63.5376 278.578 63.8621C278.007 64.5688 277.433 65.2728 276.856 65.9741C275.094 68.1259 273.213 70.2021 271.75 72.5776C270.017 75.513 268.732 78.6905 267.938 82.005C266.592 87.6589 266.892 93.5158 266.546 99.2747C266.244 101.837 265.73 104.37 265.009 106.847C264.719 106.612 264.427 106.373 264.129 106.126C260.188 102.758 258.533 100.365 256.297 95.3958C255.94 94.4921 255.607 93.5798 255.298 92.6592C254.478 90.2721 253.953 87.7942 253.732 85.2801C253.518 82.2669 253.597 79.2401 253.966 76.242C254.13 76.2367 254.294 76.2234 254.457 76.2053C254.497 76.5829 254.541 76.9601 254.591 77.3369C254.627 76.9486 254.676 76.5582 254.721 76.1685C255.637 76.0363 256.503 75.6689 257.235 75.1021C259.014 73.7755 260.597 72.2061 261.94 70.4397C268.933 62.0005 269.56 50.4764 269.344 39.9791C269.345 30.1932 268.445 20.4505 267.564 10.7145C267.598 8.57984 265.457 7.07036 263.698 8.67117C263.325 9.11434 263.06 9.63872 262.926 10.2024C262.627 11.1111 262.302 12.0108 261.985 12.9132C260.237 17.7671 258.492 22.0122 256.972 25.5092C254.306 31.7056 250.739 39.0979 250.352 43.5153C249.773 47.3731 249.89 51.3007 250.168 55.1803C250.511 59.4751 251.476 64.5942 254.261 68.9448C254.25 69.1925 254.243 69.4403 254.235 69.6881C253.461 71.744 252.702 73.8182 252.053 75.9224C251.934 75.9169 251.815 75.9071 251.697 75.8909C251.805 75.9338 251.915 75.9724 252.026 76.0069C251.186 78.6362 250.608 81.3424 250.302 84.0858C249.51 91.6585 252.097 99.3573 256.844 105.25C258.908 107.879 261.571 109.943 264.198 111.976C266.9 114.03 269.592 116.098 272.323 118.114C274.504 119.775 277.154 121.634 279.792 124.736L279.829 124.784C279.846 124.81 279.882 124.862 279.953 124.963C280.906 126.349 281.784 127.786 282.583 129.266C282.743 129.552 282.896 129.826 283.043 130.09C282.032 130.021 281.039 129.956 280.066 129.882C280.031 129.713 279.996 129.543 279.961 129.374C279.775 128.372 279.448 127.402 278.99 126.492C277.637 124.071 275.574 122.133 273.616 120.201C270.761 117.491 267.677 115.032 264.4 112.852C261.45 110.993 258.292 109.501 255.182 107.937C249.177 104.935 243.198 101.596 236.608 100.076C235.012 99.8236 233.247 99.1342 231.692 99.8406C231.453 99.9719 231.243 100.15 231.074 100.363C230.905 100.577 230.781 100.822 230.708 101.085C230.636 101.348 230.617 101.622 230.652 101.892C230.687 102.162 230.776 102.423 230.913 102.658C231.21 103.073 231.572 103.436 231.987 103.733C231.948 103.723 232.724 104.388 232.967 104.581C235.232 106.368 237.446 108.218 239.642 110.089C245.711 115.245 251.861 120.34 258.433 124.85C263.153 127.99 268.492 130.54 274.196 131.07C277.214 131.219 280.221 130.805 283.208 130.388C284.816 133.126 286.151 136.015 287.194 139.014C288.447 143.204 289.31 147.501 289.77 151.85C288.367 154.279 286.789 156.603 285.048 158.803C282.661 161.852 279.727 164.383 276.775 166.864C271.326 171.481 263.874 175.47 256.718 177.846C253.619 178.937 250.653 179.842 247.748 180.594C248.637 177.456 249.445 173.753 250.528 171.771C251.732 169.829 253.274 168.121 254.556 166.231C254.851 165.813 255.136 165.387 255.416 164.957C260.833 164.364 265.06 162.478 268.074 157.662C268.204 157.464 268.324 157.259 268.445 157.057C268.053 157.35 267.66 157.642 267.261 157.927C263.663 160.666 259.671 162.788 255.585 164.697C256.682 163.027 257.563 161.225 258.211 159.335C259.96 158.182 261.622 156.903 263.183 155.506C265.625 152.855 267.114 149.54 267.993 147.124C268.16 146.599 268.294 146.064 268.394 145.522C271.341 150.517 272.052 154.768 268.763 159.64C266.89 162.319 264.097 165.783 260.605 167.748C259.585 168.375 258.486 168.865 257.338 169.204C259.209 169.358 262.531 168.243 264.632 167.124C269.163 164.337 273.857 160.233 274.86 154.763C275.745 149.396 272.936 144.213 269.563 140.235C269.013 139.515 268.389 138.854 267.702 138.262C267.309 137.839 266.766 137.587 266.189 137.56C265.698 137.565 265.229 137.762 264.883 138.111C264.537 138.459 264.342 138.93 264.342 139.421C264.894 142.058 265.194 142.266 265.09 144.66C265.009 146.766 263.773 151.465 262.355 153.942C261.225 155.609 259.915 157.147 258.45 158.529C258.508 158.317 258.571 158.107 258.621 157.893C259.65 152.73 258.757 147.506 255.252 143.455C255.061 143.228 254.856 143.015 254.655 142.797C254.215 139.896 253.338 137.078 252.054 134.439C252.138 136.874 252.606 139.282 253.44 141.572C253.386 141.522 253.335 141.468 253.281 141.418C253.398 141.637 253.507 141.846 253.614 142.051C253.995 143.065 254.428 144.059 254.913 145.027C254.911 144.993 254.906 144.958 254.903 144.924L254.906 144.931C255.842 147.785 256.124 149.226 255.903 152.081C255.753 153.911 255.374 155.714 254.775 157.45C253.904 160.006 250.778 165.149 248.792 168.988C248.392 169.745 248.089 170.55 247.889 171.383C247.733 171.296 247.582 171.211 247.428 171.125C246.844 166.677 245.106 162.459 242.387 158.89C242.485 160.2 243.309 162.826 243.878 164.513C244.728 166.715 245.762 168.841 246.97 170.869C244.729 169.606 242.766 168.363 241.054 166.351C241.012 166.292 240.969 166.235 240.927 166.177C240.198 165.151 239.6 164.038 239.147 162.863C238.068 159.673 237.333 156.377 236.954 153.03C236.713 151.228 236.24 148.246 235.817 145.676C236.441 146.305 237.115 146.994 237.877 147.721C241.152 151.154 243.977 153.273 245.945 156.959C246.848 158.808 247.883 162.583 248.264 165.404C248.297 165.655 248.324 165.907 248.348 166.16C248.508 165.193 248.605 164.218 248.641 163.239C248.994 156.102 247.249 152.717 242.869 147.296C241.517 145.57 240.135 143.866 238.651 142.251C237.263 140.739 235.758 139.168 233.762 138.507C233.685 138.487 233.61 138.476 233.534 138.462C236.97 135.151 238.97 130.654 240.519 126.204C240.786 125.406 241.063 124.608 241.33 123.807C241.748 127.155 242.564 130.441 243.761 133.595C245.436 138.625 250.119 141.532 254.268 144.383C251.962 141.541 249.727 139.474 248.133 136.651C247.151 134.964 246.919 134.07 246.441 131.758C245.935 129.262 245.594 126.735 245.42 124.194C245.375 123.569 245.332 122.942 245.291 122.315C247.923 124.362 252.069 128.226 253.578 130.264C255.687 133.317 256 135.65 255.703 139.665C255.614 140.612 255.47 141.553 255.272 142.484C256.183 141.114 257.31 137.692 257.488 135.409C257.936 131.205 255.73 127.353 253.092 124.26C251.566 122.303 249.82 120.527 247.889 118.969C246.754 118.121 245.648 117.131 244.252 116.753C243.784 116.628 243.291 116.627 242.823 116.751C242.784 114.459 241.803 112.08 239.247 111.926C238.161 111.87 237.158 112.351 236.184 112.77C234.233 113.612 234.638 113.45 233.48 113.922C229.121 115.587 224.704 117.142 220.2 118.369C213.922 119.828 207.563 120.913 201.156 121.619C196.302 121.974 193.788 121.752 189.809 122.532C185.763 123.509 184.165 124.437 180.46 126.183C177.454 127.797 174.08 129.349 172.138 132.261C175.202 124.5 177.543 124.498 188.345 120.656C198.438 116.839 208.46 111.533 215.241 102.91C218.847 98.3402 221.755 93.2614 223.873 87.8392C224.289 86.8201 224.685 85.7926 225.059 84.7569C225.126 84.862 225.191 84.9682 225.258 85.0729C225.205 84.9258 225.155 84.7813 225.102 84.635C225.373 83.8824 225.635 83.1265 225.88 82.3648C225.546 82.8829 225.208 83.3977 224.863 83.909L224.851 83.9276C222.598 77.473 221.453 71.7293 222.411 64.8023C222.912 62.3514 224.813 54.7319 226.529 50.7657C227.437 48.5178 229.851 43.4077 231.754 39.709C233.178 37.0356 234.694 34.4127 236.094 31.7265C237.513 28.9746 238.813 26.1647 240.055 23.329C240.882 27.2919 241.064 30.2289 241.364 35.2174C241.585 39.6281 241.574 44.0473 241.332 48.4568C240.898 55.0838 240.549 58.5985 238.845 64.9388C238.196 67.5941 237.305 70.1842 236.183 72.6766C235.161 74.604 233.968 76.4358 232.619 78.1502C232.634 78.1295 232.649 78.1103 232.66 78.0957C231.824 79.1836 230.888 80.1899 229.863 81.1012C228.923 81.9254 227.907 82.6595 226.83 83.2939C226.76 83.3369 226.689 83.3797 226.618 83.4224C226.697 83.3995 226.777 83.3771 226.856 83.3544C227.925 83.0567 228.966 82.6638 229.966 82.1804C233.304 80.5311 236.089 77.8871 238.42 75.018C241.906 70.2381 243.842 64.4353 244.884 58.6553C245.678 53.1171 246.074 47.5289 246.067 41.9339C246.104 36.483 245.759 31.0362 245.034 25.6336C244.527 22.2671 243.98 18.7874 242.358 15.7552C242.131 15.3625 241.794 15.0457 241.387 14.8446C240.981 14.6435 240.524 14.567 240.074 14.6248C239.625 14.6827 239.202 14.8722 238.86 15.1695C238.518 15.4669 238.271 15.8588 238.151 16.296C237.905 16.8914 237.656 17.4859 237.405 18.0795C237.069 18.8747 236.729 19.6686 236.387 20.4613C235.619 22.2592 234.802 24.0355 233.967 25.803C231.44 31.2082 228.312 36.309 225.859 41.751C222.653 48.4021 219.016 57.2325 218.842 66.2799C218.932 69.567 219.521 72.8214 220.588 75.9317C221.643 78.8216 223.018 81.5842 224.688 84.1678C221.82 88.4957 218.702 92.6525 215.349 96.6169C215.729 92.9489 215.464 89.211 215.204 85.5461C214.513 79.3098 213.127 72.9863 209.728 67.6261C207.669 64.3916 205.406 61.2909 202.954 58.3427C202.291 57.5578 201.642 56.7576 200.904 56.0407C200.885 56.0182 200.867 55.9969 200.846 55.9731C199.709 54.5786 197.735 53.635 196.508 55.4874C195.982 56.3461 196.394 57.3564 196.449 58.285C196.63 59.7808 196.805 61.2775 196.942 62.7781C197.296 66.7836 197.357 70.8097 197.124 74.8241C196.849 79.5386 196.722 84.2801 197.579 88.9471C198.034 91.69 198.577 94.5434 200.179 96.875C201.875 99.5895 204.287 100.818 207.437 101.074C208.761 101.162 210.09 101.11 211.403 100.919C209.039 103.33 206.523 105.588 203.871 107.679C202.387 108.894 197.12 112.299 192.646 114.379C187.263 116.985 186.582 116.991 181.623 119.244C179.079 120.512 176.273 121.712 174.339 123.854C171.03 127.601 170.777 132.834 170.183 137.581C169.327 135.587 168.877 133.742 169.388 131.652C170.233 127.633 171.703 125.017 172.979 121.955C174.756 118.206 177.244 112.513 178.094 110.281C180.017 105.426 182.189 100.634 183.3 95.5069C183.986 92.5968 184.705 89.6849 185.003 86.7038C185.291 83.7307 185.261 80.7356 184.916 77.7687C184.394 73.5957 183.626 69.2174 181.202 65.6887C180.57 64.8475 179.869 64.06 179.107 63.3346C183.312 60.9805 184.99 55.5197 185.913 51.074C187.054 45.4455 187.272 39.6688 186.558 33.9703C186.17 29.6073 185.263 25.3061 183.858 21.1573C182.349 16.4098 180.36 11.837 178.468 7.23402C177.713 5.42343 176.81 3.38391 176.657 3.03485C176.201 2.03989 175.708 0.976277 174.782 0.341023C174.325 0.0670685 173.79 -0.046773 173.261 0.0175036C172.732 0.0817803 172.24 0.320507 171.862 0.695927C171.438 1.22268 171.136 1.83704 170.977 2.49471C170.517 3.84542 170.118 5.21621 169.666 6.56958C168.657 9.53056 167.437 12.4134 166.245 15.3043C165.072 18.2854 161.504 25.3419 161.074 30.6329C160.465 34.7587 161.204 38.9816 162.342 42.9552C163.663 47.0859 165.527 51.0232 167.883 54.6643C170.579 58.531 174.602 61.167 178.197 64.1211C175.566 60.667 173.186 58.1892 171.053 54.5611C169.716 52.0314 169.648 51.5204 168.386 47.9495C165.793 39.8212 164.322 34.3211 166.299 27.5159C167.584 23.3125 168.384 21.94 169.854 18.3799C171.322 14.9667 172.72 11.5251 173.954 8.02356C174.09 8.34754 174.228 8.68107 174.366 9.01577C174.205 9.84949 174.064 10.6869 173.929 11.5251C173.296 15.8066 172.924 20.1249 172.622 24.4413C172.3 29.5826 172.134 34.7651 172.764 39.8898C173.266 44.3157 174.165 48.6875 175.45 52.9523C176.283 56.2125 177.213 59.4466 178.336 62.6192C178.043 62.355 177.747 62.0949 177.444 61.8443C177.565 62.0142 177.685 62.1852 177.803 62.3574C178.07 62.7413 178.309 63.11 178.537 63.4727C178.412 63.5644 178.283 63.6496 178.15 63.7281C178.305 63.6885 178.457 63.6405 178.605 63.5845C181.111 67.6332 181.235 70.5142 181.373 75.2801C181.358 82.8406 180.683 87.3032 179.029 93.8801C178.898 93.7887 178.767 93.698 178.635 93.607C178.606 93.0999 178.574 92.5931 178.505 92.09C178.17 90.2076 177.635 88.3663 176.909 86.5978C174.123 78.8065 167.8 72.7567 160.682 68.798C158.308 67.3946 155.803 66.2245 153.203 65.304C150.522 64.5411 147.73 64.2422 144.948 64.4203C143.707 64.5514 142.392 64.8261 141.459 65.7118C141.053 66.1462 140.767 66.6789 140.629 67.2573C140.491 67.8358 140.505 68.4402 140.672 69.0113C141.376 70.759 143.052 71.8667 144.262 73.2524C148.09 77.2781 152.391 80.8261 157.07 83.8191C162.193 87.073 167.738 89.547 173.353 91.8377C174.48 92.7105 175.592 93.6359 176.908 94.743C176.479 94.036 176.049 93.3759 175.617 92.7529C176.529 93.1175 177.44 93.4802 178.351 93.841C178.449 94.1587 178.546 94.4765 178.647 94.793C178.676 94.8553 178.686 94.946 178.75 94.9783C178.41 96.2937 178.033 97.6977 177.617 99.2289C175.056 107.035 171.943 114.649 169.3 122.426C168.99 123.456 168.657 124.511 168.355 125.581C167.976 123.304 167.475 121.05 166.852 118.829C163.356 106.962 152.817 96.0927 140.795 92.8658C134.952 91.1089 128.447 91.1284 122.902 93.8523C120.219 94.8696 116.595 97.4529 118.186 100.704C118.971 102.141 120.401 103.099 121.506 104.28C124.391 107.137 127.188 110.084 130.15 112.864C133.723 116.377 137.579 119.591 141.676 122.475C143.75 123.986 145.774 125.572 147.965 126.914C153.989 130.54 160.589 133.103 167.373 134.899C167.425 134.971 167.479 135.042 167.528 135.118C167.735 135.581 167.938 136.041 168.139 136.496C168.304 137.267 168.474 138.036 168.658 138.803C168.669 138.456 168.683 138.11 168.696 137.763C170.897 142.792 172.745 147.278 174.303 150.994C175.069 152.94 178.469 160.49 179.575 163.031C181.083 166.986 182.388 171.015 183.486 175.103C186.046 184.988 187.458 191.882 184.701 201.094C182.701 208.267 179.12 214.123 174.409 221.06C169.539 228.017 165.311 233.724 159.003 240.397C157.825 241.614 156.621 242.806 155.393 243.974C154.272 241.459 153.302 239.061 152.257 236.367C151.169 233.782 150.221 231.141 149.416 228.455C147.439 221.139 146.041 213.658 143.472 206.511C139.473 195.886 133.216 186.256 125.134 178.284C122.102 175.568 118.876 173.078 115.481 170.834C113.234 169.517 110.901 168.352 108.497 167.349C110.014 165.07 111.337 162.667 112.452 160.166C114.185 156.066 115.305 151.733 115.774 147.306C116.093 142.275 115.643 137.225 114.438 132.33C113.466 128.702 112.09 125.194 110.336 121.873C110.9 122.119 111.464 122.416 112.422 122.874C114.965 124.245 117.471 125.689 119.889 127.273C122.339 128.862 123.208 129.609 126.155 133.032C126.044 132.888 125.933 132.744 125.821 132.6C127.286 134.435 128.501 136.456 129.434 138.611C130.023 139.757 131.779 145.212 131.783 146.598C132.037 151.505 131.892 153.64 130.613 157.986C129.52 161.722 128.471 163.929 126.014 167.49C125.032 168.933 122.784 171.159 120.852 172.744C120.748 172.854 120.297 173.148 120.653 172.968C122.465 172.169 124.195 171.195 125.818 170.061C128.11 168.327 130.103 166.231 131.719 163.856C135.134 158.636 137.02 152.285 136.198 146.04C135.882 143.669 135.273 141.345 134.384 139.124C133.072 135.466 131.064 132.097 128.471 129.202C124.719 124.857 119.57 122.111 114.574 119.445C112.341 118.429 108.322 116.277 105.979 117.39C105.541 117.641 105.198 118.03 105.003 118.496C104.808 118.962 104.773 119.479 104.903 119.967C106.247 123.326 108.534 127.074 109.772 131.201C111.435 136.566 111.594 139.496 111.965 145.178C112.302 152.703 110.977 160.21 108.084 167.166C103.071 164.947 100.492 164.131 96.0563 161.968C89.8931 158.766 83.8582 155.288 78.0186 151.527C76.536 150.547 75.1751 149.635 73.8862 148.748C75.1239 148.664 76.3441 148.409 77.5123 147.992C84.0567 145.858 88.734 140.033 90.9906 133.704C92.4856 129.124 92.8409 124.248 92.0258 119.499C91.381 115.075 90.0706 110.774 88.139 106.741C85.2958 101.41 81.755 96.4818 77.6101 92.0861C75.8717 90.3812 72.2944 86.2158 69.7469 86.7649C69.2944 86.8941 68.8999 87.1747 68.6294 87.5597C68.3588 87.9448 68.2286 88.411 68.2605 88.8805C68.3023 89.3835 68.4383 89.8741 68.6613 90.3269C68.6962 90.4131 68.7304 90.4959 68.7613 90.5697C69.2324 91.7728 69.6498 92.9962 70.0482 94.2252C71.0436 97.3528 71.8149 101.071 71.9529 102.87C72.7378 110.956 70.492 118.697 66.5626 125.651C65.3868 127.746 64.0648 129.755 62.6066 131.664C61.5934 132.929 60.1063 134.568 58.7432 136.073C55.8071 132.838 54.051 130.275 51.3812 125.924C49.1525 122.044 48.5957 120.572 47.2729 116.594C46.2411 113.426 45.4712 110.179 44.9708 106.885C44.8533 105.558 44.76 104.23 44.7101 102.898C44.6073 99.4923 44.7415 96.0809 44.9102 92.6791C45.2128 88.0846 45.7555 83.5087 46.2428 78.931C46.5877 75.4627 47.1002 72.6404 47.6976 68.6421C45.6397 73.1429 43.9888 77.8189 42.7648 82.6141C41.0968 88.5079 40.2477 94.6033 40.2413 100.729C39.5299 99.9076 38.8262 99.08 38.1541 98.2262C36.1242 95.5606 33.1048 91.2946 30.9632 87.8711C29.484 85.5181 27.9196 83.1988 26.7786 80.656C26.563 80.3671 25.4192 77.0668 24.9433 75.1789C24.5817 73.6691 24.3077 72.1396 24.1227 70.5982C23.5117 64.1378 24.754 60.2826 25.4208 54.0643C26.0994 48.9231 26.6742 43.7689 27.1131 38.6015C27.4414 34.642 27.8624 30.672 27.6397 26.6948C27.5351 24.358 27.2093 22.0364 26.6669 19.761C26.773 19.7634 26.8792 19.7677 26.9849 19.7764C27.2393 19.8187 27.4911 19.8752 27.7391 19.9458C31.4005 21.228 35.4021 24.9501 39.2711 29.0744C43.9356 34.1959 46.7545 37.5016 50.3881 43.433C53.7846 49.139 55.2801 52.9936 56.5309 59.758C56.9817 62.1536 57.6092 68.3415 56.985 72.656C56.4916 76.7519 56.7174 75.9083 56.0035 79.6197C55.4145 81.6736 54.6962 83.6881 53.8529 85.6513C52.9955 87.5686 51.9944 89.4184 50.8582 91.1848C49.4598 93.3078 48.319 94.8981 46.3123 96.7095C45.8926 97.074 45.4611 97.4243 45.0179 97.7604C45.3502 97.6253 45.6805 97.4852 46.0055 97.3333C48.5471 96.1808 50.7198 94.3423 52.6594 92.3619C55.4543 89.4393 57.7087 86.0441 59.3177 82.3342C60.5481 79.6533 60.9428 76.6947 61.3631 73.8004C62.3217 66.6157 61.2372 59.2865 59.2544 52.3598C56.6289 44.4347 51.9022 37.4171 46.4698 31.1458C41.9628 26.0998 33.7552 16.7531 26.8668 16.0333C23.4627 15.9305 22.2713 18.2946 22.776 19.9229C23.0228 21.2602 23.2566 22.6 23.4506 23.9461C23.8611 27.7115 23.8787 31.5095 23.503 35.2785C22.8039 46.2188 21.2721 56.4374 20.2906 64.9223C19.8508 71.5011 21.2209 78.0748 24.2522 83.9301C27.345 88.9954 31.2551 93.537 35.4411 97.7281C36.9605 99.2233 38.5681 100.626 40.2552 101.929C40.2948 103.82 40.4159 105.71 40.632 107.595C41.4619 113.574 43.164 119.399 45.6842 124.885C48.4898 130.446 52.0614 135.586 56.2948 140.155C56.4819 140.352 56.6748 140.544 56.865 140.738C50.5993 137.154 43.8735 134.515 37.0229 132.278C29.5145 129.711 21.8548 127.514 13.9796 126.43C11.4491 126.103 8.92241 125.716 6.38215 125.473C4.6704 125.466 2.0586 124.706 1.19228 126.671C0.550175 128.103 1.63374 129.229 2.71106 130.035C3.44305 130.636 4.1497 131.268 4.85919 131.895C7.43201 134.18 9.95773 136.516 12.4829 138.852C17.0233 143.105 21.8575 147.062 27.2095 150.255C32.5773 153.158 38.2566 155.639 44.2477 156.905C53.5867 159.058 59.6474 157.555 67.9583 153.086C58.7032 155.304 54.0539 155.745 45.1059 152.901C40.3682 151.549 35.7642 149.766 31.3515 147.574C27.637 145.585 24.1326 143.226 20.8919 140.533C16.7083 137.023 12.7899 133.211 8.66996 129.627C9.37558 129.718 10.0805 129.815 10.7853 129.906C10.6123 129.883 10.4393 129.86 10.2663 129.837C14.9326 130.398 19.5548 131.278 24.1006 132.472C36.6975 135.96 50.5361 141.534 61.7171 145.961C62.4509 146.28 63.1865 146.609 63.914 146.957C64.4864 147.412 65.0605 147.865 65.6363 148.315C74.3502 155.084 83.8957 160.718 93.6474 165.847C98.278 168.109 102.594 169.651 105.996 171.194C107.976 172.067 109.951 172.956 111.854 173.987C113.707 175.087 115.496 176.292 117.212 177.595C120.006 179.625 122.59 181.93 124.926 184.474C128.882 188.718 130.752 191.223 134.005 196.192C135.808 199.05 138.929 205.519 139.418 206.788C142.123 213.454 143.193 220.626 145.675 227.361C146.858 230.695 148.402 233.888 150.281 236.884C151.76 239.422 153.348 241.899 155.069 244.279C151.995 247.19 148.791 249.956 145.457 252.575C142.072 255.264 135.323 260.146 130.905 264.283C126.972 267.987 123.353 272.012 120.087 276.315C118.411 278.552 117.125 281.056 116.283 283.721C113.737 291.69 114.249 302.097 116.896 309.98C117.963 313.237 119.436 316.347 121.282 319.236C122.764 321.258 124.451 323.122 126.315 324.799C125.265 324.577 124.208 324.38 123.143 324.219C118.618 323.4 110.082 323.537 104.258 325.175C111.208 325.256 115.504 326.041 122.484 327.541C127.995 328.708 133.582 329.483 139.202 329.862C140.522 329.928 141.845 329.86 143.165 329.909C142.538 329.677 141.905 329.46 141.267 329.258C136.608 327.702 131.948 326.07 127.155 324.984C125.253 322.235 123.319 319.019 122.575 316.802C119.931 308.738 119.563 305.05 119.03 297.928C118.736 290.648 119.081 285.195 122.628 279.45C125.863 274.626 130.532 269.586 135.847 264.996C144.318 258.051 152.464 252.852 161.042 244.022C166.502 238.512 171.212 232.314 175.819 226.089C180.661 219.445 185.782 211.459 187.921 205.237C188.599 203.414 189.163 201.552 189.611 199.66C193.261 195.75 196.548 192.227 201.289 190.158C204.321 188.635 210.991 187.753 216.628 187.669C218.967 187.618 221.31 187.627 223.651 187.614C220.808 206.364 220.301 225.393 222.142 244.267C221.711 244.109 221.281 243.951 220.849 243.798C221.29 244.114 221.738 244.419 222.184 244.726C222.188 244.766 222.191 244.806 222.195 244.846C222.218 245.089 222.241 245.333 222.264 245.577C222.287 245.328 222.311 245.08 222.335 244.831C223.839 245.863 225.37 246.855 226.913 247.827C227.773 248.398 228.644 248.954 229.515 249.508C229.523 249.512 229.53 249.515 229.537 249.519C229.548 249.608 229.557 249.697 229.568 249.787C229.575 249.706 229.582 249.626 229.589 249.546C229.751 249.618 229.931 249.644 230.107 249.619C230.283 249.594 230.449 249.52 230.585 249.406C230.722 249.291 230.823 249.141 230.877 248.971C230.932 248.802 230.938 248.621 230.894 248.448C230.833 248.284 230.74 248.133 230.62 248.006C230.5 247.878 230.356 247.775 230.196 247.703C230.057 247.603 229.916 247.507 229.774 247.41C230.629 237.883 231.821 228.381 232.057 218.808C232.547 208.324 232.071 197.839 231.829 187.356C232.952 187.274 234.075 187.169 235.195 187.025C247.803 185.639 260.351 182.288 271.47 176.082C274.811 174.109 277.964 171.833 280.888 169.282C282.796 167.721 284.608 166.047 286.316 164.269C291.11 159.007 294.786 152.834 297.661 146.343C298.543 144.289 299.417 142.225 300.201 140.128C302.347 139.146 304.167 138.247 306.576 137.639C310.901 136.686 315.351 136.356 319.615 135.096C325.413 133.473 336.174 129.791 338.991 124.233C339.255 123.681 339.461 123.104 339.604 122.509C339.091 123.378 338.432 124.152 337.656 124.798ZM253.219 50.2748C253.535 46.5322 254.297 42.8407 255.489 39.2787C256.738 35.7727 258.99 31.3225 261.054 26.6992C261.897 24.833 263.015 22.2876 264.065 19.7641C264.645 26.5227 264.821 33.3107 264.844 40.0931C264.937 47.9123 264.568 52.6343 263.462 58.0335C262.344 64.2193 260.158 69.1828 256.635 73.7752C256.156 74.4314 255.532 74.9685 254.812 75.3447C255.44 70.4221 256.68 65.411 258.033 60.4933C258.889 57.3181 260.016 54.2195 260.722 51.004C261.995 44.7962 262.128 38.4214 262.183 32.1048C262.184 31.7271 262.18 31.3493 262.178 30.9716C262.16 31.0523 262.142 31.1329 262.124 31.2136C261.056 35.8887 260.122 40.5926 259.095 45.2763C258.229 49.6408 256.684 53.8266 255.691 58.1581C254.929 61.7073 254.451 65.3114 254.262 68.9364C252.096 62.9552 252.564 56.4899 253.219 50.2748ZM254.256 73.5091C254.287 74.1834 254.332 74.8569 254.394 75.5298C254.275 75.5754 254.153 75.6176 254.027 75.6558C254.102 74.9395 254.178 74.2239 254.256 73.5091ZM274.489 129.169C269.739 127.942 265.493 125.361 261.006 122.113C255.651 118.169 252.302 115.603 247.123 111.242C244.68 109.203 242.292 107.096 239.857 105.046C244.581 106.732 248.793 109.157 253.989 111.821C257.234 113.527 260.548 115.101 263.76 116.87C268.047 119.344 272.88 122.281 276.266 124.979C277.86 126.143 279.111 127.715 279.886 129.531C279.94 129.648 279.994 129.764 280.048 129.881C278.181 129.767 276.324 129.53 274.489 129.169ZM203.014 96.2086C201.522 93.5685 201.507 91.4871 201.173 88.0927C200.392 80.638 201.559 73.1676 201.16 65.7048C201.101 64.4505 201.002 63.1991 200.885 61.9491C201.229 62.3727 201.554 62.782 201.822 63.1335C203.072 64.7307 206.484 69.1953 208.006 72.5737C210.038 76.3987 212.414 84.6656 213.818 91.6879C214.238 93.5254 214.562 95.3834 214.79 97.2544C214.251 97.87 213.699 98.4778 213.14 99.0817C211.996 94.1726 210.56 89.3345 209.241 84.4706C207.773 79.9483 206.155 74.3614 204.761 70.3685C204.697 81.6501 207.721 89.6232 212.98 99.2525C212.662 99.5939 212.346 99.9361 212.021 100.274C208.047 99.7676 204.321 98.9846 203.014 96.2086L203.014 96.2086ZM178.489 62.7603C178.207 59.3874 178.039 56.0071 177.839 52.6291C177.603 49.7006 177.282 46.778 177.134 43.8431C176.757 33.0681 176.165 22.2969 174.81 11.5954C174.745 10.9343 174.676 10.2734 174.611 9.61221C175.043 10.6679 175.475 11.7382 175.877 12.7205C178.115 18.1315 180.165 23.6564 181.349 29.4042C182.228 34.9121 182.721 40.4749 182.824 46.0518C182.776 50.6318 182.838 54.3332 181.712 58.1991C181.269 59.956 180.406 61.5791 179.197 62.929C179.113 63.013 179.018 63.0866 178.928 63.1648C178.784 63.0279 178.636 62.8947 178.489 62.7603ZM173.765 90.3224C169.866 85.6838 165.623 83.4323 159.951 79.4576C158.584 78.404 157.319 77.2236 156.174 75.932C155.556 75.2554 154.948 74.5695 154.351 73.8744C154.486 74.2133 154.624 74.5519 154.766 74.8881C155.227 76.004 155.759 77.0887 156.361 78.135C154.938 77.0219 153.421 75.7934 151.719 74.3286C149.645 72.4934 147.725 70.4975 145.784 68.5241C146.041 68.5233 146.404 68.5262 147.01 68.5096C151.754 68.5357 155.249 70.2258 160.454 73.2327C163.175 74.7882 165.722 76.6301 168.051 78.727C171.131 81.4657 172.457 83.0539 174.16 85.5214C175.42 87.3338 176.52 89.2526 177.447 91.2561C177.451 91.2653 177.425 91.2033 177.414 91.1771C177.57 91.5233 177.523 91.4481 177.711 91.9074C177.882 92.3635 178.034 92.8265 178.18 93.2914C176.72 92.2853 175.245 91.3004 173.765 90.3224ZM178.704 94.6888C178.685 94.447 178.67 94.2047 178.656 93.9622C178.763 94.0047 178.87 94.0473 178.977 94.0898C178.906 94.3694 178.834 94.6529 178.759 94.9402C178.707 94.9037 178.716 94.7466 178.704 94.6888ZM150.677 123.909C150.361 123.705 146.989 120.948 145.329 119.575C143.798 118.356 142.19 117.24 140.643 116.043C136.364 112.93 128.123 104.347 122.734 99.1035C123.095 98.8522 123.474 98.6299 123.869 98.4385C124.768 97.9729 125.696 97.567 126.648 97.2236C129.807 96.3055 130.184 96.2685 132.848 96.221C135.627 96.2749 136.548 96.4468 139.959 97.3914C144.796 98.7386 148.491 101.097 151.847 104.061C155.683 107.499 157.045 109.375 159.583 113.297C161.451 116.24 163 119.374 164.203 122.646C165.104 124.836 165.873 127.078 166.507 129.36C166.789 130.366 167.029 131.383 167.257 132.401C164.751 127.171 162.094 121.969 158.588 117.338C155.28 113.509 151.221 110.364 147.076 107.491C143.469 105.151 139.541 103.372 135.607 101.66C133.724 100.904 131.783 100.304 129.802 99.8651C129.486 99.7637 129.942 99.9821 130.032 100.05C132.674 101.54 135.202 103.222 137.597 105.083C142.385 108.466 145.301 110.548 149.393 114.18C151.525 116.086 153.862 117.756 155.906 119.761C159.98 124.137 163.757 128.779 167.47 133.464C167.545 133.981 167.658 134.492 167.808 134.992C161.88 131.647 156.159 127.946 150.677 123.909ZM167.704 135.13C167.648 135.057 167.582 134.992 167.51 134.936C167.612 134.962 167.713 134.99 167.815 135.017C167.83 135.066 167.841 135.115 167.856 135.164L167.858 135.167C167.873 135.24 167.888 135.312 167.904 135.384C167.837 135.3 167.771 135.214 167.704 135.13ZM70.5591 146.39C69.0753 145.303 67.6539 144.202 66.2177 143.022C71.8879 138.681 77.7229 133.641 79.6669 126.514C80.5906 123.08 80.7705 119.489 80.1945 115.98C80.0913 115.378 79.9665 114.781 79.8202 114.188C79.6917 115.366 79.5293 116.393 79.3152 117.623C78.6109 121.376 77.4342 125.025 75.8132 128.483C73.1854 133.899 69.592 138.415 66.0895 142.917C64.3795 141.508 62.6448 139.982 60.7511 138.207C60.0877 137.524 59.4872 136.887 58.9249 136.272C61.0422 134.665 63.0459 132.915 64.9218 131.032C69.028 126.597 72.1748 122.087 74.3326 115.952C76.6331 108.913 76.3202 101.248 74.1324 94.2052C74.5936 94.7212 75.0621 95.2501 75.5356 95.7712C78.3241 99.1218 78.3735 99.1791 81.0645 103.277C82.3895 105.424 83.7708 107.558 84.7682 109.882C85.6291 111.761 87.498 117.946 87.8484 121.952C87.8216 121.752 87.7948 121.551 87.7678 121.351C87.8499 122.129 87.9069 122.91 87.9133 123.692C87.8674 126.203 87.842 126.999 87.6255 128.339C86.8379 132.711 86.1143 134.081 83.8242 137.871C81.1725 141.899 78.2025 144.638 73.4422 146.15C72.5013 146.39 71.5268 146.471 70.5591 146.39ZM170.224 137.677C170.388 137.18 170.546 136.709 170.701 136.25C170.573 136.795 170.452 137.342 170.319 137.883C170.288 137.815 170.254 137.745 170.224 137.677ZM228.772 218.859C228.535 225.319 228.412 231.809 228.666 238.278L228.664 238.274C228.641 238.257 228.615 238.245 228.587 238.239C228.559 238.232 228.53 238.231 228.502 238.236C228.497 238.235 228.496 238.23 228.49 238.23C228.308 238.234 228.125 238.246 227.943 238.257C227.934 238.245 227.93 238.231 227.929 238.216C227.929 238.201 227.933 238.187 227.941 238.174C227.915 238.196 227.897 238.226 227.892 238.26L227.875 238.261C227.708 237.804 226.549 238.489 226.233 238.586C226.602 238.565 226.966 238.491 227.333 238.451C227.332 238.476 227.337 238.502 227.348 238.524C227.361 238.557 227.384 238.584 227.412 238.604C227.441 238.623 227.475 238.634 227.51 238.633C227.828 238.613 228.143 238.567 228.453 238.496C228.535 238.493 228.612 238.461 228.671 238.406C228.787 241.298 228.977 244.185 229.267 247.064C228.35 246.474 227.397 245.941 226.441 245.415C226.268 245.289 226.094 245.163 225.915 245.043C225.575 244.836 225.226 244.531 224.805 244.556C224.658 244.555 224.514 244.598 224.391 244.679C224.269 244.76 224.172 244.875 224.115 245.01C223.538 244.786 222.96 244.567 222.38 244.353C222.386 244.293 222.392 244.232 222.397 244.172C222.62 241.791 222.825 239.408 223.013 237.024C223.512 230.646 224.011 224.266 224.329 217.876C224.717 207.792 224.356 197.696 224.09 187.611C226.592 187.595 229.093 187.547 231.587 187.373C230.101 197.807 229.254 208.334 228.772 218.859ZM229.356 183.574C219.176 184.272 207.897 182.499 198.947 188.467C194.978 191.174 192.196 195.195 189.707 199.244C191.513 191.163 190.52 184.128 188.232 175.283C186.871 170.204 185.383 165.133 183.321 160.29C181.255 155.691 178.68 151.335 176.099 147.011C174.571 144.489 172.912 142.054 171.171 139.677C170.891 139.114 170.632 138.574 170.392 138.044C171.1 136.515 171.834 134.719 172.648 133.521C174.046 131.797 176.309 130.733 178.255 129.995C182.063 128.616 185.954 127.355 189.954 126.676C193.018 126.326 196.112 126.409 199.19 126.262C202.664 126.068 206.124 125.659 209.548 125.037C213.715 124.36 217.885 123.645 221.985 122.629C227.527 121.045 232.961 119.104 238.252 116.818C238.249 117.116 238.231 117.413 238.197 117.708C238.132 118.096 237.98 119.003 237.894 119.305C237.817 119.621 237.728 119.934 237.641 120.248C235.359 121.565 232.969 122.696 230.63 123.909C226.721 125.898 222.28 128.132 219.451 129.143C215.036 130.806 210.43 131.911 205.741 132.433C200.716 132.74 195.687 132.068 190.657 132.255C187.058 132.505 183.428 132.79 179.919 133.671C176.935 134.479 174.167 135.887 171.428 137.291C174.392 136.421 177.88 135.424 180.396 135.224C186.238 134.849 192.077 135.599 197.885 136.156C202.031 136.611 206.22 136.478 210.329 135.761C213.278 135.352 216.168 134.592 218.936 133.496C224.202 131.562 229.504 127.697 233.365 124.682C234.71 123.653 236.037 122.592 237.289 121.451C236.925 122.621 236.521 123.779 236.133 124.939C234.935 128.288 234.49 129.5 232.287 132.945C230.45 135.56 227.492 137.877 223.369 140.144C220.017 142.041 215.043 143.607 211.04 143.761C207.083 143.923 203.119 143.771 199.186 143.306C195.313 142.991 191.468 142.399 187.679 141.535C182.989 140.421 178.394 138.918 173.654 138.01C173.15 137.913 172.646 137.814 172.142 137.712C172.443 137.862 172.743 138.013 173.045 138.159C179.113 141.056 184.939 144.595 191.478 146.357C195.303 147.37 199.22 147.995 203.17 148.223C206.752 148.461 210.361 148.541 213.924 148.026C216.691 147.677 219.393 146.933 221.949 145.817C224.978 144.611 227.835 143.011 230.444 141.057C230.447 141.283 230.474 141.508 230.525 141.728C230.894 143.831 231.266 145.934 231.596 148.044C232.503 153.807 233.464 159.736 236.504 164.818C239.034 169.142 243.249 170.772 247.764 171.938C247.594 172.81 247.494 173.695 247.465 174.583C247.356 176.609 247.407 178.637 247.474 180.663C241.533 182.171 235.47 183.145 229.356 183.574ZM265.273 107.061C266.673 104.596 267.81 101.991 268.667 99.289C270.01 94.2169 270.622 88.9746 271.99 83.908C273.73 77.9574 275.268 74.7215 278.91 70.6157C278.93 70.5926 278.949 70.569 278.968 70.5458C279.38 78.4395 278.858 86.3541 277.415 94.1255C276.842 96.8597 276.347 99.6354 275.278 102.229C274.715 103.552 274.03 104.819 273.231 106.014C272.603 106.975 271.821 107.827 270.918 108.536C270.247 109.019 269.534 109.44 268.788 109.794C267.571 108.873 266.438 108 265.273 107.061ZM297.658 133.062C295.969 139.221 293.536 145.151 290.412 150.721C290.566 148.619 290.593 146.51 290.493 144.405C290.381 141.667 290.228 138.906 289.585 136.233C288.874 133.271 287.845 130.394 286.515 127.653C285.47 125.402 284.336 123.182 282.726 121.272C280.078 118.217 276.789 115.802 273.565 113.395C272.144 112.317 270.906 111.391 269.762 110.53C269.993 110.471 270.222 110.408 270.449 110.335C272.04 109.837 273.493 108.976 274.694 107.819C277.636 105.096 279.552 101.473 280.742 97.6813C282.446 92.8733 283.091 87.7845 283.417 82.7164C283.693 78.6654 283.743 74.6023 283.568 70.5458C283.951 72.579 284.408 74.5998 284.981 76.6007C286.406 82.2645 289.858 89.749 292.804 93.3865C294.144 95.1985 295.697 96.843 297.429 98.2847C298.457 99.0248 299.533 99.6964 300.65 100.295C300.599 103.233 300.498 106.17 300.413 109.106C300.252 113.908 299.833 118.697 299.157 123.454C298.562 127.705 298.633 128.896 297.658 133.062Z" fill="#38493B"/>
<path d="M232.659 78.0956C232.665 78.089 232.67 78.0826 232.675 78.076C232.68 78.0685 232.672 78.0787 232.659 78.0956Z" fill="#38493B"/>
<path d="M239.287 28.4946C239.287 28.3675 239.287 28.2406 239.288 28.1138C239.062 28.9749 238.827 29.8339 238.594 30.6933C238.019 32.9703 237.326 35.2161 236.519 37.4218C234.935 41.9376 232.956 46.3216 231.769 50.9688C230.413 55.723 229.913 60.6513 228.928 65.4827C227.554 71.4669 225.942 77.3973 224.936 83.4612C227.262 77.2095 229.552 72.2568 231.788 66.2151C233.367 61.5945 234.337 56.793 235.494 52.0555C236.479 47.747 237.82 43.5211 238.524 39.1505C239.148 35.6347 239.404 32.0634 239.287 28.4946Z" fill="#38493B"/>
<path d="M265.948 121.434C263.43 120.028 260.874 118.688 258.234 117.525C257.8 117.331 257.367 117.131 256.936 116.931C257.009 116.998 257.081 117.067 257.153 117.135C263.969 123.56 269.063 126.286 278.121 128.588C274.121 126.107 270.054 123.734 265.948 121.434Z" fill="#38493B"/>
<path d="M269.418 108.281C271.444 105.245 273.188 102.03 274.626 98.6745C275.824 95.5817 276.698 92.3728 277.234 89.0996C273.644 94.6006 270.984 101.624 269.418 108.281Z" fill="#38493B"/>
<path d="M410.296 98.5489C409.211 98.1793 408.157 98.7085 407.409 99.4916C406.667 100.146 405.947 100.825 405.179 101.449C403.919 102.605 400.038 105.047 396.92 106.431C396.693 106.534 396.464 106.633 396.236 106.733C393.353 107.953 390.345 108.85 387.266 109.41C383.688 110.12 382.048 110.183 376.768 110.256C373.828 110.269 370.884 110.177 367.95 110.412C365.057 110.598 362.195 111.082 359.338 111.554C363.228 111.667 368.527 111.981 371.383 112.487C375.507 113.132 379.642 113.895 383.828 113.938C386.749 113.892 389.654 113.497 392.482 112.763C398.412 111.005 402.894 109.005 408.167 104.644C408.107 105.114 408.013 105.461 407.797 106.55C407.439 107.993 406.933 109.394 406.287 110.733C405.816 111.8 405.227 112.811 404.532 113.747C404.209 114.158 403.808 114.694 402.842 115.824C401.081 117.823 399.907 118.868 398.71 119.606C395.424 121.488 393.913 122.045 389.718 123.202C386.389 124.029 385.78 124.25 383.024 124.381C378.173 124.529 376.08 124.191 371.995 123.478C366.802 122.76 361.79 121.405 356.723 120.103C354.066 119.374 352.1 118.878 349.99 117.094C349.57 116.724 349.165 116.338 348.767 115.946C350.972 115.242 353.13 114.4 355.23 113.427C359.423 111.334 363.132 108.389 366.46 105.111C369.038 102.64 371.385 99.9381 373.472 97.0399C374.645 95.4401 375.764 93.8 376.803 92.1099C376.665 92.2384 376.527 92.367 376.39 92.4956C372.508 96.1502 368.39 99.5453 364.062 102.659C360.25 105.541 356.146 108.015 351.818 110.041C348.453 111.483 344.944 112.561 341.35 113.257C337.647 113.909 335.443 114.075 330.921 114.338C328.913 114.507 326.847 114.654 324.993 115.507C320.555 117.608 318.045 122.081 315.5 126.059C317.523 123.985 319.459 121.808 321.733 120.001C323.335 118.757 325.95 117.648 326.955 117.681C330.742 117.516 334.521 118.22 338.315 117.944C341.832 117.718 345.308 117.058 348.662 115.978C348.691 116.028 348.72 116.079 348.749 116.129C350.915 120.357 355.57 122.12 359.663 123.956C362.988 125.524 366.472 126.729 370.056 127.549C374.913 128.846 379.962 129.269 384.966 128.797C387.465 128.55 389.881 127.882 392.292 127.213C395.618 126.237 398.916 124.932 401.8 122.987C404.509 121.046 406.648 118.454 408.612 115.788C410.028 113.537 411.106 111.089 411.813 108.525C412.33 105.78 413.707 99.7676 410.296 98.5489Z" fill="#38493B"/>
<path d="M369.664 96.3279C367.504 96.3814 367.51 99.5456 369.664 99.605C371.824 99.5514 371.818 96.3873 369.664 96.3279Z" fill="#38493B"/>
<path d="M392.106 47.7782C391.129 44.7594 390.277 41.6625 388.834 38.8256C387.986 37.1169 385.921 36.205 384.39 37.6789C382.923 39.5053 381.525 41.3905 380.146 43.2849C377.641 46.7543 375.016 50.1494 372.775 53.7999C370.942 56.964 369.334 60.2531 367.963 63.643C366.151 68.6756 365.098 73.9503 364.84 79.2933C364.808 84.0551 365.537 88.7899 366.441 93.4537C366.674 88.6635 367.081 83.1223 367.731 79.4632C368.493 75.9369 369.467 72.4599 370.649 69.0511C372.359 64.1926 372.545 63.8955 375.118 58.8352C378.1 53.271 382.124 48.3514 385.806 43.2451C385.908 43.5332 386.038 43.8872 386.222 44.3555C388.753 51.7314 390.085 56.9116 390.323 63.9034C390.399 67.4211 389.819 69.3951 388.681 73.6189C388.303 75.5997 385.046 80.7091 383.896 82.0706C381.46 85.2106 377.036 89.3303 374.796 91.1419C373.205 92.4925 369.995 94.2967 367.359 95.4257C367.265 95.47 367.171 95.5141 367.077 95.5581C367.216 95.5331 367.355 95.5094 367.493 95.485C369.761 95.0919 372.04 94.6622 374.162 93.7384C377.228 92.4781 380.013 90.6166 382.659 88.6388C386.853 85.4728 390.508 81.3697 392.503 76.4634C393.861 72.7574 394.664 68.8713 394.886 64.9308C394.773 59.1107 393.837 53.3359 392.106 47.7782Z" fill="#38493B"/>
<path d="M386.27 55.7822C384.971 58.7431 383.8 62.019 382.862 64.0197C381.375 67.0951 379.694 70.0736 378.165 73.1284C376.58 76.2545 375.108 79.4359 373.546 82.5732C371.573 86.487 369.951 89.4089 368.375 93.7759C371.5 89.592 375.463 85.5961 378.365 81.0112C381.576 76.1768 384.041 70.8872 385.679 65.3197C386.534 61.9587 386.855 58.4887 387.288 55.0549C387.364 54.3524 387.434 53.6492 387.493 52.9451C387.087 53.891 386.677 54.8359 386.27 55.7822Z" fill="#38493B"/>
<path d="M198.182 22.8354C196.022 22.889 196.027 26.0531 198.182 26.1125C200.341 26.059 200.336 22.8949 198.182 22.8354Z" fill="#38493B"/>
<path d="M141.451 35.084C139.291 35.1375 139.297 38.3017 141.451 38.3611C143.611 38.3075 143.605 35.1434 141.451 35.084Z" fill="#38493B"/>
<path d="M240.73 86.6577C238.57 86.7112 238.576 89.8754 240.73 89.9348C242.89 89.8813 242.884 86.7171 240.73 86.6577Z" fill="#38493B"/>
<path d="M382.916 119.16C379.806 119.416 376.674 119.684 373.554 119.49C372.509 119.496 365.812 118.376 364.674 118.244C360.4 117.653 356.791 117.404 354.353 116.959C350.552 116.239 346.777 115.353 342.91 115.05C347.456 116.581 351.522 118.997 356.229 120.364C361.933 121.853 367.852 123.009 373.77 122.649C377.461 122.302 381.005 121.062 384.422 119.675C385.072 119.409 385.717 119.129 386.356 118.836C385.211 118.959 384.064 119.061 382.916 119.16Z" fill="#38493B"/>
<path d="M397.385 127.917C395.225 127.97 395.231 131.134 397.385 131.194C399.545 131.14 399.539 127.976 397.385 127.917Z" fill="#38493B"/>
<path d="M189.801 96.3279C187.641 96.3814 187.647 99.5456 189.801 99.605C191.961 99.5514 191.955 96.3873 189.801 96.3279Z" fill="#38493B"/>
<path d="M162.725 96.3279C160.565 96.3814 160.571 99.5456 162.725 99.605C164.885 99.5514 164.879 96.3873 162.725 96.3279Z" fill="#38493B"/>
<path d="M125.826 143.176C125.744 142.762 125.62 142.358 125.456 141.969C125.426 142.845 125.336 143.717 125.188 144.581C124.213 149.303 122.806 153.925 120.986 158.39C119.074 163.24 118.436 164.75 115.986 170.17C119.73 166.15 123.205 161.654 125.044 156.424C126.447 152.15 126.717 147.585 125.826 143.176Z" fill="#38493B"/>
<path d="M50.2636 144.762C43.0375 143.231 36.1742 142.377 30.4247 141.554C30.1388 141.509 29.8534 141.46 29.5686 141.411C30.1066 141.685 30.6452 141.957 31.1869 142.223C33.864 143.556 36.6213 144.722 39.4428 145.714C47.8381 148.8 56.9184 148.978 65.7016 150.185C60.7858 147.779 55.6043 145.959 50.2636 144.762Z" fill="#38493B"/>
<path d="M107.464 182.355C105.477 182.88 103.581 183.68 101.63 184.316C99.8724 184.886 98.0689 185.301 96.2715 185.725C93.2764 186.421 88.6506 186.161 85.3206 185.636C77.8249 184.177 71.6374 181.448 65.8131 178.776C63.2975 177.611 60.8083 176.391 58.3457 175.116C58.1085 174.995 57.8744 174.869 57.6395 174.743C60.5207 174.1 61.8823 174.024 64.7007 173.697C67.8189 173.321 70.9546 173.107 74.0951 173.056C79.3565 173.221 84.6098 173.626 89.8698 173.852C94.3372 174.138 98.7968 174.63 103.279 174.587C105.719 174.56 108.158 174.51 110.597 174.436C110.478 174.411 110.358 174.385 110.239 174.359C104.68 173.202 99.1055 172.123 93.559 170.905C86.6216 169.61 79.5697 169.03 72.5141 169.176C69.4273 169.338 66.3555 169.697 63.2899 170.083C59.9523 170.486 56.6058 170.954 53.4004 172.005C51.6368 172.476 50.4476 174.209 51.8845 175.763C52.3388 176.165 52.8245 176.529 53.337 176.852L53.2772 176.792C57.826 179.737 62.8396 181.919 67.7508 184.186C74.041 186.973 80.5625 189.471 87.4448 190.229C90.806 190.546 94.2819 190.678 97.5357 189.628C99.462 189.047 101.341 188.321 103.157 187.455C104.948 186.578 106.648 185.526 108.461 184.693C111.448 183.282 116.1 181.838 120.177 180.806C115.893 180.815 111.625 181.335 107.464 182.355Z" fill="#38493B"/>
<path d="M98.611 176.249C96.7947 176.547 91.4097 176.996 87.4689 177.356C87.1751 177.381 86.8807 177.403 86.5869 177.425C87.1765 177.584 87.7672 177.739 88.3587 177.891C90.9001 178.575 93.5112 178.967 96.1415 179.059C99.2282 179.15 102.267 178.479 105.339 178.335C107.93 178.297 110.508 178.652 113.086 178.872C107.963 176.369 104.332 175.43 98.611 176.249Z" fill="#38493B"/>
<path d="M73.76 33.7944C71.6002 33.8479 71.6058 37.0121 73.76 37.0715C75.9199 37.018 75.9143 33.8538 73.76 33.7944Z" fill="#38493B"/>
<path d="M38.948 44.7542C36.7883 44.8077 36.7939 47.9718 38.9481 48.0312C41.1079 47.9777 41.1023 44.8135 38.948 44.7542Z" fill="#38493B"/>
<path d="M33.1459 70.541C30.9861 70.5945 30.9918 73.7587 33.146 73.8181C35.3058 73.7646 35.3002 70.6004 33.1459 70.541Z" fill="#38493B"/>
<path d="M148.542 174.333C146.382 174.387 146.388 177.551 148.542 177.61C150.702 177.557 150.696 174.392 148.542 174.333Z" fill="#38493B"/>
<path d="M136.808 241.792C136.506 238.998 135.21 236.433 133.76 234.067C132.47 231.959 131.05 229.934 129.508 228.003C128.143 226.412 126.847 224.681 125.179 223.4C124.92 223.252 124.626 223.175 124.328 223.176C124.029 223.177 123.736 223.255 123.477 223.404C123.218 223.552 123.002 223.766 122.851 224.024C122.699 224.281 122.618 224.573 122.614 224.872C122.656 225.325 122.796 225.764 123.026 226.157C123.113 226.388 123.328 226.799 123.716 227.953C124.067 228.981 124.341 230.033 124.537 231.102C124.618 231.585 124.627 231.664 124.558 231.15L124.629 231.676C125.022 235.77 124.601 238.09 123.015 242.191C122.059 244.527 121.642 246.019 119.833 248.367C118.477 250.126 116.904 251.706 115.15 253.069C114.354 253.647 112.82 254.706 111.502 255.614C112.556 251.63 113.407 247.586 113.071 243.469C112.938 242.247 112.648 241.047 112.207 239.899C116.469 232.948 118.922 226.721 117.755 218.248C117.705 217.877 117.644 217.507 117.578 217.138C117.505 217.799 117.433 218.357 117.351 218.923C116.438 225.987 114.277 232.776 112.053 239.518C110.656 236.208 108.065 233.824 104.892 232.079C105.068 232.045 105.244 232.012 105.418 231.979C105.171 231.973 104.925 231.968 104.678 231.964C103.473 231.324 102.223 230.769 100.94 230.304C99.6178 227.265 98.0214 224.353 96.1704 221.605C92.4289 216.035 88.1088 210.759 82.7045 206.724C79.9273 204.507 66.0384 195.075 64.6102 201.528C64.4566 202.878 65.2109 204.148 65.5634 205.421C66.4871 208.016 67.2513 209.841 67.9419 211.415C69.1735 214.15 70.321 216.943 71.8795 219.514C74.5467 223.745 77.6951 227.78 81.7248 230.794C87.6036 234.926 94.9452 233.966 101.738 232.687C101.791 232.772 101.845 232.856 101.895 232.938C101.957 233.036 102.018 233.135 102.079 233.233C102.013 233.041 101.941 232.852 101.872 232.661C102.285 232.583 102.696 232.504 103.105 232.425C104.595 233.507 105.944 234.771 107.118 236.19C110.398 240.378 110.078 245.246 109.522 248.1C108.648 253.198 106.971 258.129 106.21 263.246C106.198 263.319 106.188 263.393 106.176 263.467C105.06 260.511 103.276 257.676 101.283 254.926C97.9096 250.21 91.0233 243.149 84.7784 243.643C81.8161 243.835 78.7802 245.5 79.3693 248.9C79.7303 251.524 80.8488 253.985 81.8928 256.399C84.4539 262.082 89.1336 266.986 95.2545 268.682C98.7561 269.832 102.431 269.374 105.989 268.683C106.2 271.156 106.982 273.546 108.272 275.665C110.289 278.708 113.593 280.411 116.632 282.25C114.456 280.104 112.075 278.233 110.758 276.01C109.564 274.321 109.155 272.399 108.85 270.27C108.556 267.753 108.955 264.988 110.043 260.957C110.486 259.284 110.97 257.6 111.424 255.905C115.451 254.088 119.367 251.998 122.299 248.593C123.474 247.219 124.46 245.695 125.232 244.061C126.057 242.548 126.742 240.964 127.28 239.327C128.004 237.007 128.271 234.568 128.065 232.146C129.454 234.137 130.696 236.226 131.782 238.397C131.858 238.555 131.929 238.706 131.974 238.803C132.067 239.044 132.16 239.284 132.253 239.525C132.519 240.303 132.722 241.102 132.862 241.912C132.864 241.93 132.866 241.947 132.868 241.964C132.927 244.238 132.98 243.838 132.303 246.033C132.006 246.982 131.624 247.903 131.161 248.783C130.387 250.226 129.488 251.599 128.477 252.887C127.484 254.261 124.974 257.058 122.834 259.375C119.819 262.638 116.771 266.466 113.449 268.619C112.186 269.521 110.736 270.126 109.206 270.388C111.833 270.902 116.159 268.875 118.752 266.964C121.394 265.047 123.856 262.893 126.313 260.747C129.561 257.881 132.694 254.708 134.676 250.812C136.003 248.017 137.239 244.945 136.808 241.792ZM84.3514 228.501C79.3941 224.311 75.4059 219.094 72.6627 213.211C70.7515 209.077 69.6349 206.743 68.3046 202.766C69.7209 203.004 71.9123 203.998 73.9492 205.143C79.5948 208.412 82.8125 211.305 87.5479 215.935C91.3076 219.665 94.8647 223.593 98.2039 227.703C98.5672 228.167 99.1917 228.999 99.8611 229.932C99.5398 229.825 99.2184 229.718 98.8951 229.618C99.3388 229.88 99.7772 230.15 100.213 230.425C100.568 230.927 100.924 231.444 101.253 231.939C94.9539 231.915 89.0503 231.828 84.3514 228.501ZM101.608 231.94C101.502 231.664 101.39 231.389 101.278 231.115C101.667 231.377 102.063 231.655 102.458 231.944C102.174 231.942 101.891 231.941 101.608 231.94ZM98.9669 267.403C96.345 266.715 92.9227 264.623 91.4458 263.198C88.374 260.469 86.8043 257.699 84.7233 253.376C84.1752 252.178 83.7 250.947 83.3004 249.692C82.9101 248.308 82.9806 248.77 82.9664 247.949C83.03 247.898 83.0705 247.864 83.0938 247.844C84.1221 247.186 85.5366 247.339 85.9892 247.34C88.2456 247.787 90.7193 249.347 93.4569 251.367C95.6197 252.853 102.658 259.501 105.404 263.851C105.608 264.166 105.8 264.488 105.997 264.808C105.883 265.948 105.868 267.095 105.951 268.238C103.345 268.114 101.354 268.023 98.9669 267.403L98.9669 267.403Z" fill="#38493B"/>
<g filter="url(#filter0_d_2_4751)">
<ellipse cx="174.5" cy="335.5" rx="167.5" ry="2.5" fill="#38493B"/>
</g>
<path d="M91.5663 226.661C88.1743 223.958 84.7313 220.124 82.4159 217.066C81.682 216.072 80.9864 215.05 80.3121 214.014C80.4371 214.405 80.5646 214.796 80.6947 215.185C81.9915 219.498 84.4322 223.378 87.7576 226.415C90.9409 229.068 94.8896 230.523 98.8441 231.592C96.6649 230.22 92.7519 227.659 91.5663 226.661Z" fill="#38493B"/>
<path d="M116.516 198.958C112.706 195.549 108.157 192.494 103.002 191.756C101.173 191.5 99.3141 191.935 97.7881 192.975C96.2698 194.103 96.4519 196.316 97.2772 197.82C99.4335 201.911 102.078 205.724 105.153 209.178C108.338 212.609 112.291 215.182 116.221 217.688C116.359 218.521 116.505 219.35 116.632 219.991C116.703 219.363 116.766 218.718 116.811 218.065C117.01 218.191 117.208 218.317 117.406 218.444C117.213 218.254 117.019 218.066 116.825 217.876C117.032 214.65 116.753 211.254 114.483 208.813C114.282 208.547 114.564 209.065 114.571 209.12C115.436 211.22 115.514 212.571 115.742 214.492C115.808 215.051 115.964 216.103 116.143 217.21C113.169 214.319 110.15 211.456 107.592 208.183C105.835 206.006 101.092 197.941 100.032 195.814C99.9832 195.683 99.9375 195.551 99.8953 195.418C100.033 195.342 100.185 195.268 100.302 195.213C101.536 194.794 101.145 194.934 102.022 194.879C102.69 194.891 103.353 195.005 103.986 195.218C108.87 196.524 115.009 201.324 117.883 204.763C120.62 208.22 121.08 212.153 120.784 216.252C120.535 217.876 120.073 219.461 119.41 220.964C119.328 221.092 119.285 221.277 119.449 220.98C120.284 219.765 120.976 218.458 121.512 217.084C122.013 215.554 122.312 213.966 122.402 212.358C122.916 206.85 120.496 202.571 116.516 198.958Z" fill="#38493B"/>
<path d="M110.832 262.915C113.596 261.604 116.362 260.224 118.768 258.313C121.627 255.997 123.989 253.104 126.04 250.064C120.766 254.101 115.856 258.579 110.832 262.915Z" fill="#38493B"/>
<path d="M98.7837 261.997C96.361 260.595 93.795 259.454 91.3798 258.036C95.0205 262.182 100.023 264.675 105.031 266.782C103.082 265.021 100.992 263.421 98.7837 261.997Z" fill="#38493B"/>
<path d="M40.5683 324.526C35.2827 323.665 29.9377 323.2 24.5964 322.854C36.4434 326.626 45.6356 329.162 57.4257 328.464C52.5294 326.933 46.0829 325.553 40.5683 324.526Z" fill="#38493B"/>
<path d="M64.4636 314.041C64.0491 313.045 63.8191 312.522 63.4616 311.664C63.2346 311.125 63.0124 310.584 62.795 310.041C62.8011 310.097 62.8062 310.153 62.8118 310.209C63.0962 313.374 63.7034 316.502 64.624 319.543C65.5975 322.489 67.1058 325.222 68.6808 327.882C67.7315 323.141 66.319 318.505 64.4636 314.041Z" fill="#38493B"/>
<path d="M79.8897 317.565C79.5314 315.141 79.0162 312.744 78.4602 310.359C78.3019 309.676 78.1452 308.994 77.99 308.31C77.9853 308.384 77.9804 308.457 77.9758 308.531C77.734 312.422 77.624 316.351 78.1598 320.223C78.6929 323.619 79.5327 326.958 80.669 330.202C80.6646 325.978 80.4044 321.757 79.8897 317.565Z" fill="#38493B"/>
<path d="M98.1686 319.277C97.9064 318.445 97.6509 317.612 97.4134 316.773C97.4102 316.881 97.4067 316.988 97.4038 317.096C97.3338 319.627 97.5991 322.157 98.1929 324.618C98.8441 326.817 99.7098 328.946 100.778 330.976C100.304 326.998 99.4295 323.079 98.1686 319.277Z" fill="#38493B"/>
<path d="M147.569 327.108C148.435 324.877 149.138 322.585 149.673 320.251C150.11 318.053 150.525 315.156 150.796 313.275C148.481 317.509 147.639 322.326 147.569 327.108Z" fill="#38493B"/>
<path d="M172.79 299.623C169.233 302.38 166.778 306.277 164.864 310.295C161.71 316.624 160.282 323.6 159.557 330.589C160.629 327.798 161.555 324.951 162.661 322.174C164.033 318.577 165.138 316.341 166.674 312.551C167.855 309.903 169.693 304.276 172.533 300.497C173.008 299.871 173.523 299.276 174.074 298.715C173.635 299.002 173.204 299.301 172.79 299.623Z" fill="#38493B"/>
<path d="M196.368 285.396C193.177 283.188 190.679 285.683 188.454 287.905C185.439 290.889 182.639 294.082 180.074 297.461C175.572 303.278 171.792 309.677 169.351 316.634C167.573 321.213 166.762 326.085 166.518 330.976C167.227 328.202 168.106 325.474 169.148 322.807C171.129 318.303 173.468 313.965 176.141 309.834C180.737 302.569 184.358 297.548 190.32 291.377C191.258 290.441 192.181 289.486 193.208 288.645L193.218 288.638C193.404 288.518 193.594 288.405 193.789 288.3C193.804 288.301 193.819 288.301 193.834 288.302C193.916 288.323 193.993 288.346 194.053 288.365C194.244 288.478 194.43 288.601 194.609 288.733C194.642 288.76 194.674 288.785 194.705 288.813C194.711 288.838 194.719 288.862 194.725 288.888C194.757 291.283 193.596 293.457 191.753 296.681C185.652 307.113 179.514 314.062 173.133 322.75C171.701 324.717 170.276 326.69 168.807 328.631C171.373 326.774 175.334 322.881 178.236 320.172C183.338 315.376 188.01 310.088 191.767 304.165C194.165 300.065 202.346 288.934 196.368 285.396Z" fill="#38493B"/>
<path d="M215.384 324.929C212.291 323.679 209.002 322.635 205.631 322.728C198.308 323.053 191.461 326.093 184.693 328.655C189.649 327.913 194.588 327.056 199.497 326.046C202.152 325.599 204.893 325.044 206.755 324.897C209.323 324.729 211.902 324.813 214.454 325.148C215.219 325.246 215.837 325.337 216.65 325.476C216.23 325.288 215.809 325.105 215.384 324.929Z" fill="#38493B"/>
<path d="M251.887 320.524C246.904 319.482 241.897 318.363 236.801 318.092C231.891 318.041 227.024 318.918 222.203 319.761C226.455 320.207 230.728 320.37 234.997 320.532C239.342 320.799 243.696 320.91 248.047 320.748C249.444 320.704 250.84 320.652 252.237 320.599C252.12 320.574 252.003 320.549 251.887 320.524Z" fill="#38493B"/>
<path d="M312.426 275.164C311.425 271.263 309.248 263.896 304.556 263.422C301.94 263.365 301.385 265.542 301.95 267.706C302.113 268.397 302.248 271.387 302.199 273.725C302.099 277.689 302.092 278.58 301.159 282.255C300.108 285.958 299.444 287.25 297.149 290.825C295.87 292.846 294.43 294.759 292.842 296.547C293.248 295.458 293.621 294.355 293.952 293.237C295.377 287.784 296.313 283.313 295.519 276.854C295.134 273.477 294.283 270.055 292.222 267.288C290.548 265.063 288.354 263.065 285.734 262.046C283.547 261.349 280.881 261.558 279.137 263.163C277.647 264.533 277.278 266.588 277.049 268.508C276.876 269.771 276.713 271.036 276.554 272.3C276.137 275.633 275.55 280.482 275.242 282.577C275.193 282.888 275.278 282.341 275.291 282.212C274.47 287.881 273.433 293.52 272.227 299.12C271.689 296.217 271.024 293.337 270.265 290.482C268.555 284.572 266.403 277.795 260.839 272.766C257.945 269.997 253.504 267.036 249.509 269.292C247.25 270.837 245.982 272.871 246.176 276.296C246.745 281.476 249.25 286.216 251.809 290.673C255.338 296.703 259.335 302.437 263.146 308.287C265.473 311.74 266.971 315.627 268.021 319.632C263.305 318.809 259.108 318.286 253.914 317.827C259.318 320.15 263.434 321.078 268.387 321.102C268.463 321.428 268.537 321.754 268.609 322.081C268.609 321.756 268.606 321.431 268.6 321.105C268.694 321.105 268.789 321.103 268.883 321.103C268.759 321.41 268.688 321.737 268.675 322.068C268.654 324.364 270.549 325.215 272.465 324.367C275.491 324.186 278.5 323.782 281.467 323.159C290.498 321.231 299.832 315.196 305.353 307.796C312.005 298.518 315.204 286.389 312.426 275.164ZM276.79 296.356C278.205 289.165 279.214 281.9 279.815 274.595C280.498 267.881 280.186 265.428 282.413 264.973C284.711 264.823 285.237 265.365 286.864 266.658C288.577 268.28 288.753 268.393 289.731 270.021C292.35 274.662 292.384 282.293 290.998 288.03C289.363 295.751 286.127 302.054 281.803 307.95C279.106 310.461 276.436 312.834 273.652 315.54C273.788 313.995 273.793 312.44 273.667 310.893C274.531 306.661 275.912 301.018 276.79 296.356ZM268.56 319.727C268.472 316.077 267.788 312.465 266.535 309.036C264.153 303.146 260.932 297.624 257.589 292.234C255.553 289.08 253.718 285.8 252.097 282.415L252.078 282.374C249.537 276.273 249.069 274.1 251.173 272.358C252.67 271.219 255.266 272.347 257.886 274.739C262.953 279.341 264.475 284.246 266.474 291.412C268.266 298.735 269.202 304.042 269.464 311.27C269.188 312.603 268.938 313.94 268.742 315.289C268.608 316.501 268.235 317.813 268.871 318.943C269.077 319.291 269.371 319.578 269.725 319.776C269.792 319.689 269.78 319.704 269.725 319.776L269.725 319.776C269.689 319.822 269.653 319.869 269.617 319.916L269.615 319.918L269.617 319.916C269.66 319.86 269.698 319.811 269.725 319.776L269.725 319.776L269.615 319.918C269.26 319.853 268.908 319.789 268.56 319.727ZM307.83 292.174C306.5 297.284 303.464 303.127 300.982 306.11C298.2 309.387 294.586 312.254 292.378 313.876C289.745 315.812 287.081 317.721 284.169 319.218C280.683 321.027 277.628 322.159 273.643 323.557C276.417 321.389 278.656 318.581 280.978 315.953C282.617 314.06 284.171 312.082 285.617 310.029C287.96 307.842 290.253 305.601 292.444 303.258C296.238 299.387 299.763 295.232 302.503 290.538C305.689 285.11 306.854 278.74 306.607 272.501C306.593 271.798 306.569 271.093 306.528 270.389C306.992 271.487 307.388 272.612 307.715 273.759C308.791 277.858 308.984 279.149 309.04 283.239C308.968 287.23 308.821 288.254 307.83 292.174Z" fill="#38493B"/>
<path d="M223.763 241.577C223.764 241.583 223.766 241.589 223.767 241.595L223.766 241.589L223.763 241.577Z" fill="#38493B"/>
<path d="M235.355 253.989C235.314 253.767 235.213 253.56 235.064 253.391C235.082 253.414 235.115 253.452 235.132 253.475C235.043 253.297 234.962 253.114 234.892 252.928C234.917 252.875 234.939 252.82 234.958 252.764C235.035 252.452 235.003 252.123 234.869 251.831C234.832 251.732 234.788 251.636 234.737 251.544C234.605 251.248 234.434 250.971 234.228 250.721C234.203 250.668 234.176 250.616 234.145 250.566C233.321 249.226 232.062 248.261 230.797 247.331C230.276 246.476 229.635 245.701 228.892 245.03C228.147 244.281 227.395 243.539 226.623 242.817C226.568 242.286 226.486 241.757 226.378 241.233C226.363 241.088 226.32 240.947 226.252 240.818C226.247 240.792 226.24 240.766 226.236 240.74L226.235 240.73C226.144 239.728 226.068 238.723 226.047 237.717C226.061 237.332 226.046 236.946 226.001 236.563C225.976 236.474 225.939 236.39 225.89 236.312C225.875 236.27 225.86 236.221 225.85 236.181C225.805 235.989 225.792 235.79 225.812 235.594C225.852 235.233 225.886 234.554 225.92 234.278C225.978 234.128 225.985 233.964 225.939 233.81C225.954 233.412 225.986 232.836 225.572 232.738L225.568 232.736C225.55 232.469 225.534 232.202 225.513 231.935C226.076 232.19 226.711 232.234 227.303 232.06C227.896 231.886 228.406 231.504 228.741 230.985C229.082 230.464 229.227 229.839 229.151 229.221C229.075 228.604 228.782 228.033 228.324 227.61C228.315 227.577 228.303 227.543 228.292 227.51C228.31 227.059 228.15 226.619 227.848 226.285C227.805 226.018 227.688 225.768 227.509 225.565C227.33 225.362 227.098 225.214 226.838 225.137C226.584 225.057 226.313 225.044 226.051 225.099C225.79 225.155 225.548 225.277 225.348 225.454C225.072 225.567 224.828 225.748 224.641 225.98C224.197 226.18 223.82 226.503 223.554 226.911C223.288 227.318 223.144 227.794 223.139 228.28C223.053 228.697 223.099 229.131 223.27 229.521C223.441 229.91 223.729 230.238 224.093 230.458C224.187 230.574 224.29 230.682 224.402 230.781C224.542 231.058 224.722 231.313 224.936 231.538C225.104 231.699 225.297 231.832 225.507 231.932C225.473 232.189 225.423 232.448 225.372 232.708C225.325 232.714 225.28 232.73 225.241 232.754C225.167 232.786 225.102 232.835 225.051 232.896C224.999 232.957 224.963 233.03 224.945 233.108C224.946 233.105 224.945 233.103 224.946 233.099C224.943 233.11 224.941 233.121 224.939 233.132C224.929 233.168 224.921 233.204 224.915 233.241C224.907 233.275 224.9 233.309 224.893 233.344C224.855 233.484 224.826 233.627 224.807 233.771C224.383 234.377 224.191 235.573 224.133 236.058C224.117 236.328 224.135 236.6 224.187 236.866C224.158 237.006 224.129 237.146 224.102 237.287C224.055 237.546 224.021 237.807 223.982 238.068C223.908 238.004 223.83 237.944 223.749 237.89C223.813 237.99 223.885 238.084 223.966 238.172C223.865 238.848 223.78 239.526 223.716 240.206C223.654 240.662 223.67 241.126 223.763 241.577C223.758 241.527 223.758 241.476 223.762 241.426C223.764 241.48 223.764 241.534 223.766 241.588C223.786 241.667 223.81 241.746 223.839 241.822C223.8 241.752 223.776 241.674 223.766 241.594C223.787 242.137 223.795 242.681 223.769 243.224C223.727 243.443 223.736 243.669 223.795 243.884C224.111 244.626 225.288 246.043 226.636 247.835C226.642 247.962 226.66 248.088 226.69 248.212C226.861 248.708 227.194 249.13 227.635 249.413C227.824 249.63 228.05 249.814 228.302 249.954C229.274 250.731 230.177 251.593 231.166 252.346C230.979 252.199 230.814 252.078 231.132 252.338C231.248 252.43 231.355 252.532 231.453 252.644L231.467 252.625C231.74 252.901 232.095 253.081 232.479 253.139C232.497 253.163 232.516 253.187 232.534 253.211C232.828 253.619 233.145 253.935 233.442 254.369C233.498 254.442 233.553 254.515 233.61 254.585C233.787 255.1 233.915 255.631 233.993 256.17C233.992 256.283 233.989 256.396 233.981 256.508C233.824 257.048 233.75 257.608 233.761 258.17C233.749 258.178 233.737 258.186 233.726 258.196C233.657 258.295 233.617 258.412 233.611 258.533C233.606 258.653 233.636 258.773 233.697 258.878C233.751 259.273 233.81 259.743 233.874 260.216C233.822 260.241 233.774 260.275 233.732 260.315C233.753 260.298 233.778 260.288 233.805 260.283C233.831 260.279 233.859 260.281 233.884 260.29C233.895 260.373 233.906 260.456 233.918 260.538C233.921 260.585 233.936 260.644 233.994 260.644C234.059 260.642 234.073 260.569 234.067 260.516L234.067 260.514C234.113 260.413 234.074 260.177 234.117 260.077C234.158 259.702 234.199 259.326 234.235 258.95C234.316 258.887 234.373 258.798 234.397 258.698C234.678 258.148 234.929 257.183 235.076 256.944C235.183 256.653 235.255 256.352 235.292 256.045C235.463 255.372 235.485 254.67 235.355 253.989Z" fill="#38493B"/>
<path d="M202.1 203.864C200.655 207.277 198.753 210.476 196.95 213.707C194.334 218.276 191.483 222.704 188.786 227.225C185.477 232.912 181.768 238.356 177.687 243.516C172.95 249.601 167.017 254.584 161.692 260.126C154.692 267.251 148.127 274.904 142.909 283.444C140.817 286.823 139.182 290.464 138.047 294.272C136.785 299.112 136.121 304.089 136.07 309.091C136.149 315.27 137.194 321.39 138.071 327.494C138.385 319.83 138.26 310.128 139.276 304.887C139.978 300.586 140.632 296.233 142.193 292.142C145.443 284.131 151.74 275.848 158.233 268.588C162.754 270.784 167.622 272.053 172.336 273.746C174.12 274.552 175.652 274.772 176.799 272.874C177.75 271.088 178.254 269.107 178.728 267.151C179.109 265.495 179.451 263.829 179.77 262.16C179.962 261.125 180.341 259.851 179.398 259.065C178.1 258.033 176.325 258.06 174.759 257.792C172.945 257.539 171.124 257.325 169.296 257.215C172.03 254.551 174.754 251.878 177.32 249.051C184.139 241.072 190.019 232.336 194.842 223.015C196.84 219.269 198.6 215.402 200.111 211.435C201.149 208.671 202.171 205.883 202.679 202.965C202.749 202.603 202.818 202.24 202.887 201.878C202.623 202.539 202.366 203.204 202.1 203.864ZM174.516 260.015C175.646 260.397 176.512 260.611 177.032 260.843C176.703 262.074 176.333 263.298 175.99 264.526C175.311 266.68 174.799 268.895 173.988 271.004C173.897 270.985 173.813 270.967 173.749 270.951C170.141 270.18 166.056 269.846 162.955 269.411C162.137 269.288 159.803 268.816 158.297 268.518C159.088 267.633 159.883 266.761 160.675 265.91C163.181 263.184 165.828 260.596 168.479 258.013C170.503 258.644 172.495 259.372 174.516 260.015Z" fill="#38493B"/>
<path d="M161.805 215.931C159.894 208.089 155.931 200.886 151.051 194.506C148.955 191.77 146.883 188.993 144.439 186.552C141.774 183.94 138.948 181.497 135.978 179.238C135.038 178.526 134.076 177.844 133.099 177.183C133.343 177.466 133.586 177.751 133.828 178.037C137.132 181.982 139.666 185.286 142.75 189.553C144.29 191.805 145.687 194.151 147.199 196.42C149.116 199.328 151.092 202.201 152.869 205.198C154.962 208.74 156.771 212.441 158.28 216.268C160.024 220.83 160.938 224.565 160.87 229.055C160.848 231.423 160.368 233.473 159.904 235.995C160.795 233.852 161.754 231.714 162.228 229.431C163.203 224.985 162.875 220.33 161.805 215.931Z" fill="#38493B"/>
<path d="M198.344 163.991C197.027 160.607 195.223 157.432 192.989 154.568C192.085 153.388 191.121 152.255 190.101 151.174C190.505 152.041 190.893 152.916 191.265 153.797C191.536 154.425 192.407 156.528 192.881 157.911C194.392 161.83 195.585 166.429 195.851 169.218C195.829 169.053 195.806 168.888 195.784 168.723C196.102 171.43 196.3 171.798 196.406 175.684C196.195 181.04 195.231 186.338 194.897 191.69C195.932 188.923 196.901 186.133 197.856 183.339C198.687 181.101 199.306 178.79 199.703 176.437C200.313 172.272 199.682 167.96 198.344 163.991Z" fill="#38493B"/>
<path d="M245.605 299.35C241.281 298.449 236.874 298.01 232.457 298.041C227.29 298.176 222.162 299.004 217.105 300.034C224.763 300.661 232.468 300.939 240.126 300.178C242.183 300.001 244.235 299.771 246.281 299.488C246.056 299.441 245.831 299.395 245.605 299.35Z" fill="#38493B"/>
<path d="M125.222 319.541C120.763 291.658 137.69 261.801 163.32 249.098C144.373 268.65 131.956 294.425 125.222 319.541Z" fill="#F0E5D8"/>
<defs>
<filter id="filter0_d_2_4751" x="0" y="330" width="349" height="19" filterUnits="userSpaceOnUse" color-interpolation-filters="sRGB">
<feFlood flood-opacity="0" result="BackgroundImageFix"/>
<feColorMatrix in="SourceAlpha" type="matrix" values="0 0 0 0 0 0 0 0 0 0 0 0 0 0 0 0 0 0 127 0" result="hardAlpha"/>
<feOffset dy="4"/>
<feGaussianBlur stdDeviation="3.5"/>
<feComposite in2="hardAlpha" operator="out"/>
<feColorMatrix type="matrix" values="0 0 0 0 0 0 0 0 0 0 0 0 0 0 0 0 0 0 0.37 0"/>
<feBlend mode="normal" in2="BackgroundImageFix" result="effect1_dropShadow_2_4751"/>
<feBlend mode="normal" in="SourceGraphic" in2="effect1_dropShadow_2_4751" result="shape"/>
</filter>
</defs>
</svg>
