<svg width="31" height="28" viewBox="0 0 31 28" fill="none" xmlns="http://www.w3.org/2000/svg">
<path d="M15.2456 10.1147L15.4186 13.8043L19.4235 7.47609L15.7183 13.9744L18.8371 12.5335L15.8913 14.2691L22.4286 14.4392L15.8913 14.6093L18.8371 16.7847L15.7183 14.904L18.8371 20.3762L15.4186 15.0741L15.2456 19.2035L15.0726 15.0741L12.0206 20.816L14.7729 14.904L11.4342 16.7847L14.5999 14.6093L7.69609 14.4392L14.5999 14.2691L11.4342 12.5335L14.7729 13.9744L11.4342 7.47607L15.0726 13.8043L15.2456 10.1147Z" fill="#C9B962"/>
<path d="M25.2555 4.46719C25.2555 6.93436 23.2397 8.93439 20.7531 8.93439C18.2665 8.93439 16.2507 6.93436 16.2507 4.46719C16.2507 2.00003 18.2665 0 20.7531 0C23.2397 0 25.2555 2.00003 25.2555 4.46719ZM18.0517 4.46719C18.0517 5.94749 19.2611 7.14751 20.7531 7.14751C22.245 7.14751 23.4545 5.94749 23.4545 4.46719C23.4545 2.9869 22.245 1.78688 20.7531 1.78688C19.2611 1.78688 18.0517 2.9869 18.0517 4.46719Z" fill="#B4754A"/>
<path d="M14.6327 4.46719C14.6327 6.93436 12.6327 8.93439 10.1655 8.93439C7.69835 8.93439 5.69832 6.93436 5.69832 4.46719C5.69832 2.00003 7.69835 0 10.1655 0C12.6327 0 14.6327 2.00003 14.6327 4.46719ZM7.4852 4.46719C7.4852 5.94749 8.68521 7.14751 10.1655 7.14751C11.6458 7.14751 12.8458 5.94749 12.8458 4.46719C12.8458 2.9869 11.6458 1.78688 10.1655 1.78688C8.68521 1.78688 7.4852 2.9869 7.4852 4.46719Z" fill="#B4754A"/>
<path d="M8.93439 14.07C8.93439 16.5566 6.93436 18.5724 4.46719 18.5724C2.00003 18.5724 0 16.5566 0 14.07C0 11.5834 2.00003 9.56763 4.46719 9.56763C6.93436 9.56763 8.93439 11.5834 8.93439 14.07ZM1.78688 14.07C1.78688 15.5619 2.9869 16.7714 4.46719 16.7714C5.94749 16.7714 7.14751 15.5619 7.14751 14.07C7.14751 12.578 5.94749 11.3686 4.46719 11.3686C2.9869 11.3686 1.78688 12.578 1.78688 14.07Z" fill="#B4754A"/>
<ellipse cx="11.534" cy="12.421" rx="1.51527" ry="1.52721" fill="#667061"/>
<path d="M14.6327 23.5319C14.6327 25.9991 12.6327 27.9991 10.1655 27.9991C7.69835 27.9991 5.69832 25.9991 5.69832 23.5319C5.69832 21.0647 7.69835 19.0647 10.1655 19.0647C12.6327 19.0647 14.6327 21.0647 14.6327 23.5319ZM7.4852 23.5319C7.4852 25.0122 8.68521 26.2122 10.1655 26.2122C11.6458 26.2122 12.8458 25.0122 12.8458 23.5319C12.8458 22.0516 11.6458 20.8516 10.1655 20.8516C8.68521 20.8516 7.4852 22.0516 7.4852 23.5319Z" fill="#B4754A"/>
<circle cx="15.3043" cy="19.1383" r="1.51527" fill="#667061"/>
<circle cx="18.9791" cy="16.7997" r="1.51527" fill="#667061"/>
<circle cx="18.9791" cy="12.4091" r="1.51527" fill="#87BB2C"/>
<circle cx="15.2565" cy="10.0944" r="1.51527" fill="#667061"/>
<circle cx="11.534" cy="16.7997" r="1.51527" fill="#667061"/>
<path d="M25.2555 23.5319C25.2555 25.9991 23.2397 27.9991 20.7531 27.9991C18.2665 27.9991 16.2507 25.9991 16.2507 23.5319C16.2507 21.0647 18.2665 19.0647 20.7531 19.0647C23.2397 19.0647 25.2555 21.0647 25.2555 23.5319ZM18.0517 23.5319C18.0517 25.0122 19.2611 26.2122 20.7531 26.2122C22.245 26.2122 23.4545 25.0122 23.4545 23.5319C23.4545 22.0516 22.245 20.8516 20.7531 20.8516C19.2611 20.8516 18.0517 22.0516 18.0517 23.5319Z" fill="#B4754A"/>
<path d="M30.391 14.07C30.391 16.5566 28.391 18.5724 25.9238 18.5724C23.4566 18.5724 21.4566 16.5566 21.4566 14.07C21.4566 11.5834 23.4566 9.56763 25.9238 9.56763C28.391 9.56763 30.391 11.5834 30.391 14.07ZM23.2435 14.07C23.2435 15.5619 24.4435 16.7714 25.9238 16.7714C27.4041 16.7714 28.6041 15.5619 28.6041 14.07C28.6041 12.578 27.4041 11.3686 25.9238 11.3686C24.4435 11.3686 23.2435 12.578 23.2435 14.07Z" fill="#B4754A"/>
</svg>
